<svg xmlns="http://www.w3.org/2000/svg" viewBox="0 0 1080 779"><defs><style>.cls-1{isolation:isolate;}.cls-2,.cls-24{fill:#020202;}.cls-3{fill:#232323;}.cls-4{fill:#2d2d2d;}.cls-5{fill:gray;}.cls-6{fill:#542713;}.cls-7{fill:#949494;}.cls-8{fill:#f79359;}.cls-9{fill:#0f0005;}.cls-10,.cls-34{fill:#fff;}.cls-11{fill:#910303;}.cls-11,.cls-44{mix-blend-mode:overlay;}.cls-12,.cls-17,.cls-18,.cls-22{fill:#f5f5f5;}.cls-12,.cls-23{opacity:0.35;}.cls-13{fill:#7c3b1f;}.cls-14{fill:#af5b31;}.cls-15{fill:#c5c6c6;}.cls-16{fill:#c6cbcd;}.cls-17,.cls-33{opacity:0.5;}.cls-19{fill:#7a7a7a;}.cls-20{fill:#4d514c;}.cls-21{fill:#2f332e;}.cls-22{opacity:0.26;}.cls-24,.cls-42{fill-rule:evenodd;}.cls-25{fill:#999;}.cls-26{fill:#303030;}.cls-27{fill:#b3b3b3;}.cls-28{fill:#4d4d4d;}.cls-29{fill:#ccc;opacity:0.42;}.cls-30{fill:#515151;}.cls-31{opacity:0.12;}.cls-32{fill:#fff4e6;}.cls-34{opacity:0.4;mix-blend-mode:screen;}.cls-35{fill:#015cab;}.cls-36{fill:#cc7246;}.cls-37{fill:#1a4262;}.cls-38{fill:#609fc1;}.cls-39{fill:#e3f5fc;}.cls-40{fill:#ba5a2a;}.cls-41,.cls-42{fill:#5e2911;}.cls-43{fill:#994520;}.cls-44{fill:#ffccb3;}.cls-45,.cls-46,.cls-47{fill:none;}.cls-45{stroke:#020202;}.cls-45,.cls-47{stroke-miterlimit:10;}.cls-46,.cls-47{stroke:#262626;stroke-linecap:round;}.cls-46{stroke-linejoin:round;}.cls-48{fill:#aad2e0;}.cls-49{fill:#507382;}.cls-50{fill:#94b8c4;}.cls-51{fill:#ffb288;}.cls-52{fill:#ffddb3;}.cls-53{fill:#0e2738;}</style></defs><title>galactic-vacuum</title><g class="cls-1"><g id="Layer_2" data-name="Layer 2"><polygon class="cls-2" points="-0.11 666.9 1080 686.9 1080 0 1.89 3 -0.11 666.9"/><polyline class="cls-3" points="442 693.23 272.49 579.42 169.56 504 99.62 550.91 0.05 518.36 0 762.49 0 779 397.4 778.4"/><polyline class="cls-4" points="522 693.23 352.49 579.42 249.56 504 179.62 550.91 2.05 518.36 4 762.49 80 779 477.4 778.4"/><rect class="cls-5" x="-1" y="646" width="1080" height="137"/><path class="cls-6" d="M659,168.5c.21,0,.44,0,.69,0Z"/><path class="cls-6" d="M662.56,170.3l.06-.11Z"/><path class="cls-6" d="M658.32,161.31c.15,0,.22,0,.35-.09A2,2,0,0,0,658.32,161.31Z"/><path class="cls-6" d="M671.62,168.43l0-.14S671.61,168.37,671.62,168.43Z"/><path class="cls-6" d="M671.62,168.43l0,.11A.12.12,0,0,0,671.62,168.43Z"/><path class="cls-6" d="M664.34,171.41c.06,0,.05,0,0-.09S664.3,171.36,664.34,171.41Z"/><path class="cls-6" d="M664.65,170.13c0-.07,0-.09-.1,0S664.59,170.19,664.65,170.13Z"/><path class="cls-6" d="M663.21,165.69h0S663.19,165.72,663.21,165.69Z"/><path class="cls-6" d="M673,164.64c-.31,0-.53.57-.74.82a4.34,4.34,0,0,0,0-1.4c.12-.11.39,0,.52-.07s.26-.29.39-.54c-.1.16-.2.1-.27,0a.25.25,0,0,0-.07.27c-.28,0,0-.27.09-.37a3.18,3.18,0,0,0,.12-.56c.13-.56.27-1.11.4-1.67.05-.23.62-2.29.2-2.34-.19,0-.45.57-.51.69-.26.48-.48,1-.7,1.47a19.41,19.41,0,0,1-1.14,2.62c-.25.39-.62.72-.9,1.08s-.94,1.12-.63,1.54c-.07,0-.35,0-.37.12s.65,0,.7,0c0,.33-.59.22-.56.46s.55.47.67.56c.56.43,1.15.83,1.66.06.39-.59.37-1.43,1.1-1.76a8.48,8.48,0,0,1,3.16-.49,10.19,10.19,0,0,1-1.69-.13C673.9,164.83,673.44,164.69,673,164.64Zm-.06-1.1,0,0A0,0,0,0,1,672.91,163.54Zm0,.11s.08,0,0-.1.05.14-.07.15Z"/><path class="cls-6" d="M659,167.85c.86.28,1.64.79,2.52,1,.18,0,.41,0,.59.09s.13.1.19.23a2.35,2.35,0,0,0,.18.31,1.39,1.39,0,0,0,1,.68c.41.08.71.19.76.64a1.37,1.37,0,0,0,.09.49,3.5,3.5,0,0,0,.39.56,5.05,5.05,0,0,0,2,1.47,8.75,8.75,0,0,0,5.39.65,7.46,7.46,0,0,0,3.71-2.31,4.61,4.61,0,0,0,1.3-4.54.8.8,0,0,0,.46,0c-.2,0-.43.09-.52-.1l.42,0a.73.73,0,0,0,.19,0c.07,0,.13-.12.21-.1a0,0,0,0,1,0,0,0,0,0,0,0,0,0h0s0,0,0,0h0l0,0a4.3,4.3,0,0,1,.16-.78,2,2,0,0,0,0-.63.73.73,0,0,0-.07-.25c0-.06-.16-.14-.17-.19-.11-.3.57-1,.75-1.19s.39-.66,0-1a1,1,0,0,0,.24-.25c.06-.11,0-.08,0-.15s0-.37,0-.55c0-.58,0-1.17-.1-1.75,0-.13-.12-1-.34-.56a2.07,2.07,0,0,0-.08.83c0,.14.05.52-.06.63-.09-.08-.05-.46-.25-.37s-.1.47-.1.58a1.69,1.69,0,0,1,0,.61.84.84,0,0,1-.72.43c.23,0,.67,0,.67.33a2.16,2.16,0,0,1-.31.76,6.48,6.48,0,0,1-1.1,1.79,1.19,1.19,0,0,0-.34-.28c-.19-.1-.22-.1-.31-.32a5.6,5.6,0,0,0-.46-.92l-.16.64a.62.62,0,0,0-.23-.42c-.12-.06-.1,0-.17.09a3.11,3.11,0,0,1-.28.55s-.08.09-.08.09.07,0,.08-.06c0,.14-.15.09-.27.08a4.1,4.1,0,0,0,.24-.41l-.19,0c.25-.16.63-.38.57-.73a2,2,0,0,0-.87.41c0,.08-.21.18-.19.24s0,0,0,0a1.88,1.88,0,0,0,0,.49c-.13,0-.11,0-.15-.11a.55.55,0,0,1,.05-.31.35.35,0,0,0-.12.4l-.23,0a.61.61,0,0,0,0-.11c0-.06-.05-.13-.09-.19a1.45,1.45,0,0,0-.34-.36c-.35-.28-.73-.52-1.05-.83a10.58,10.58,0,0,1-.58,1,1.23,1.23,0,0,1-.16.24c-.12.11-.24.07-.41.08a3.76,3.76,0,0,0-.54,0s0,0,0,0,0,0,0,0c.18-.31,0-.28,0-.6-.12,0-.23.1-.37,0,.47,0,.77-1,.89-1.37a5.34,5.34,0,0,0,.24-.89c0-.11,0-.35,0-.43l-.13,0c.25-.37-.22-1.37.32-1.54,0,0,0,.08,0,.1s.09-.42.11-.51.15-.59,0-.73-.17,0-.24.14a8.32,8.32,0,0,0-.42.82,3.88,3.88,0,0,1-.85,1.35c-.24.2-.19,1.24-.56,1.22-.32-.44-.28,1.11-.18,1.55l-.08-.07s0,0,0,0c-.16-.11-.1,0-.24,0,.06,0,.05-.23,0-.26.1,0-.36.38-.38.39-.26.19-.54.37-.81.54s-.35.06-.57.16-.67.48-1,.63c.58-.23.72.74.88,1.09-1.43.54-3.66-.07-4.47,1.64-.66-.52-.61-1.47-.86-2.2-.13-.37-.38-.64-.39-1,0-.15-.11-.48-.32-.36s-.27.89-.29,1.14,0,.65-.06,1c.65.49.71,1.29,1.19,1.83-.78-.23-1.53-.54-2.3-.8-.18-.06-.45-.23-.59-.08C658.35,167.45,659,167.56,659,167.85Zm19.34-4.5s0,0,.06.06S678.35,163.38,678.35,163.34Zm.13.19a.21.21,0,0,1-.06-.14l.15,0A.21.21,0,0,1,678.47,163.54Zm-.24-1.78c.07,0,0,.59-.05.62S678.22,161.84,678.24,161.76Zm-.34,5.09s0,0,0,0ZM674,164h0Zm0,0h0l0,0Zm-3.77-3.17h0v0Zm.07-.2h0v0Zm-.06.19h0Zm-2,3.62a.7.7,0,0,1,0-.26A1.43,1.43,0,0,1,668.22,164.43Zm6.66-.16a1,1,0,0,1,.2.39c-.17,0-.16,0-.18-.18S674.86,164.3,674.88,164.27Zm-5,.09c.1,0,.36-.08.4.05a5,5,0,0,0-1.14.33C669.42,164.41,669.71,164.18,669.86,164.36Zm-1.33-.42.09-.06S668.55,164,668.53,163.94Zm.2-.36v0s0,0,0,0Zm-.48.51a.12.12,0,0,0,0,.08A.12.12,0,0,1,668.25,164.1Zm-.54.93c0,.18.36.27.11.42C667.79,165.36,667.68,165.12,667.71,165Z"/><path class="cls-6" d="M685.34,172.38c-.19,0-.35.33-.49.47a2.68,2.68,0,0,0,0-.87c.08-.07.24,0,.33,0s.17-.17.26-.32c-.07.09-.12.05-.17,0a.15.15,0,0,0-.06.16c-.17,0,0-.17.07-.23a2,2,0,0,0,.1-.34c.1-.34.21-.67.31-1,0-.14.48-1.39.22-1.44s-.3.33-.34.4c-.18.28-.34.58-.49.88a12,12,0,0,1-.81,1.57c-.17.23-.41.41-.6.63s-.62.65-.46.92c0,0-.22,0-.23.06s.4,0,.43,0c0,.2-.37.11-.36.26s.32.31.39.37c.33.29.67.56,1,.11s.29-.87.75-1a5.23,5.23,0,0,1,2-.17,6.3,6.3,0,0,1-1-.15C685.9,172.54,685.63,172.44,685.34,172.38Zm0-.68h0Zm0,.06s.05,0,0-.06,0,.09-.05.09Z"/><path class="cls-6" d="M676.59,173.77c.52.21,1,.56,1.51.73.11,0,.25,0,.36.08s.07.07.11.15a1.45,1.45,0,0,0,.1.2.86.86,0,0,0,.56.46c.25.07.43.15.44.43a.85.85,0,0,0,0,.31,2.16,2.16,0,0,0,.21.36,3.13,3.13,0,0,0,1.19,1,5.41,5.41,0,0,0,3.29.63,4.6,4.6,0,0,0,2.39-1.27,2.85,2.85,0,0,0,1-2.74.5.5,0,0,0,.28,0c-.12,0-.27,0-.31-.09l.26,0a.45.45,0,0,0,.12,0s.09-.07.13-.06a0,0,0,0,1,0,0,0,0,0,0,0,0,0h0v0h0l0,0a2.66,2.66,0,0,1,.13-.48,1.27,1.27,0,0,0,.05-.38.45.45,0,0,0,0-.15s-.09-.09-.1-.12c-.06-.19.39-.56.51-.7s.27-.39.05-.59a.63.63,0,0,0,.16-.15c0-.06,0,0,0-.09s0-.23,0-.34c0-.36,0-.72,0-1.08,0-.08,0-.62-.19-.36a1.28,1.28,0,0,0-.09.51c0,.09,0,.32-.06.39s0-.29-.14-.24-.08.29-.09.36a1,1,0,0,1,0,.37.52.52,0,0,1-.46.23c.14,0,.41.05.4.23a1.33,1.33,0,0,1-.22.45,4,4,0,0,1-.75,1.06.74.74,0,0,0-.2-.18c-.11-.07-.13-.07-.18-.21a3.47,3.47,0,0,0-.25-.59l-.12.39a.38.38,0,0,0-.12-.27c-.07,0-.06,0-.11,0a1.92,1.92,0,0,1-.2.33s-.06.05-.06.05,0,0,.05,0-.1,0-.17,0a2.53,2.53,0,0,0,.17-.24h-.12c.16-.09.4-.21.38-.43a1.24,1.24,0,0,0-.55.21s-.13.1-.13.14l0,0a1.17,1.17,0,0,0,0,.3c-.08,0-.07,0-.09-.08a.34.34,0,0,1,0-.19.22.22,0,0,0-.09.24l-.14,0a.38.38,0,0,0,0-.07s0-.08,0-.12a.9.9,0,0,0-.19-.24c-.2-.19-.43-.35-.61-.56a6.53,6.53,0,0,1-.4.57.76.76,0,0,1-.11.14c-.08.06-.15,0-.26,0a2.32,2.32,0,0,0-.34,0s0,0,0,0,0,0,0,0c.12-.18,0-.17,0-.37-.07,0-.15.05-.23,0,.29,0,.52-.61.6-.81a3.3,3.3,0,0,0,.19-.54c0-.07,0-.22,0-.26h-.08c.17-.22-.08-.85.26-.94,0,0,0,0,0,.06s.07-.25.09-.31.11-.36.06-.45-.11,0-.15.07a5.14,5.14,0,0,0-.29.49,2.39,2.39,0,0,1-.58.8c-.15.11-.17.76-.4.73-.18-.29-.22.67-.17.95l0,0s0,0,0,0-.06,0-.15,0,0-.14,0-.16-.24.22-.25.23l-.52.3c-.12.07-.22,0-.36.08s-.43.27-.67.34c.37-.12.41.48.49.71-.91.27-2.25-.2-2.83.82-.38-.35-.32-.93-.44-1.4a2.15,2.15,0,0,1-.2-.65c0-.09,0-.3-.18-.24s-.2.54-.23.69,0,.4-.08.6c.38.33.38.83.66,1.18-.47-.17-.92-.4-1.38-.59-.11,0-.27-.16-.36-.07S676.59,173.59,676.59,173.77Zm12.12-2s0,0,0,0S688.71,171.84,688.71,171.81Zm.07.13a.13.13,0,0,1,0-.09h.09A.13.13,0,0,1,688.78,171.94Zm-.07-1.11s0,.36-.06.38S688.7,170.88,688.7,170.83Zm-.42,3.13s0,0,0,0ZM686,172h0Zm0,0h0l0,0Zm-2.19-2.12h0v0Zm.05-.12h0v0Zm0,.11h0Zm-1.38,2.15a.43.43,0,0,1,0-.16A.89.89,0,0,1,682.42,172.05Zm4.11.18a.59.59,0,0,1,.11.25c-.1,0-.1,0-.1-.12S686.51,172.26,686.53,172.24Zm-3.1-.16c.06,0,.23,0,.25,0a3.08,3.08,0,0,0-.72.16C683.16,172.09,683.35,172,683.43,172.08Zm-.8-.31.06,0S682.64,171.77,682.63,171.76Zm.14-.21h0Zm-.32.3a.08.08,0,0,0,0,0A.08.08,0,0,1,682.45,171.85Zm-.37.55c0,.11.21.18.05.26A.65.65,0,0,1,682.08,172.4Z"/><path class="cls-6" d="M665.46,158.13c-.13,0-.23.22-.32.31a1.78,1.78,0,0,0,0-.57c.05,0,.16,0,.22,0s.12-.11.17-.21c0,.06-.08,0-.11,0a.1.1,0,0,0,0,.11c-.11,0,0-.11,0-.15a1.3,1.3,0,0,0,.06-.22l.21-.67c0-.09.31-.92.14-.95s-.2.22-.23.27-.22.38-.32.58a7.93,7.93,0,0,1-.54,1c-.11.15-.27.27-.4.42s-.41.43-.3.61c0,0-.15,0-.15,0s.27,0,.29,0-.25.07-.24.17.21.21.26.25c.22.19.45.37.67.07s.19-.57.5-.69a3.46,3.46,0,0,1,1.3-.11,4.16,4.16,0,0,1-.69-.1C665.83,158.24,665.65,158.17,665.46,158.13Zm0-.45h0Zm0,0s0,0,0,0,0,.06,0,.06Z"/><path class="cls-6" d="M659.68,159c.34.14.64.37,1,.48.07,0,.17,0,.24.05s0,0,.07.1l.07.13a.57.57,0,0,0,.37.3c.16,0,.29.1.29.28a.56.56,0,0,0,0,.2,1.43,1.43,0,0,0,.14.24,2.07,2.07,0,0,0,.79.66,3.58,3.58,0,0,0,2.18.42,3,3,0,0,0,1.58-.84,1.88,1.88,0,0,0,.66-1.81.33.33,0,0,0,.19,0c-.08,0-.18,0-.21-.06l.17,0h.08s.06,0,.09,0h0v0a1.76,1.76,0,0,1,.09-.31.84.84,0,0,0,0-.25.3.3,0,0,0,0-.1s-.06-.06-.07-.08.26-.37.34-.46.18-.26,0-.39a.42.42,0,0,0,.11-.1s0,0,0-.06,0-.15,0-.23c0-.24,0-.48,0-.72,0-.05,0-.41-.12-.24a.85.85,0,0,0-.06.33c0,.06,0,.21,0,.26s0-.19-.09-.16-.05.19-.06.23a.69.69,0,0,1,0,.25.34.34,0,0,1-.3.15c.09,0,.27,0,.26.15a.88.88,0,0,1-.15.3,2.64,2.64,0,0,1-.5.7.49.49,0,0,0-.13-.12c-.07,0-.09,0-.12-.14a2.29,2.29,0,0,0-.16-.39l-.08.26a.25.25,0,0,0-.08-.18s0,0-.07,0a1.27,1.27,0,0,1-.13.22s0,0,0,0,0,0,0,0-.07,0-.11,0a1.68,1.68,0,0,0,.11-.16H666c.11-.06.27-.14.25-.28a.82.82,0,0,0-.37.14s-.09.07-.08.09l0,0a.77.77,0,0,0,0,.2c-.05,0,0,0-.06-.05a.22.22,0,0,1,0-.12.14.14,0,0,0-.06.16l-.09,0v0s0-.06,0-.08a.59.59,0,0,0-.13-.16c-.13-.13-.28-.23-.41-.37a4.32,4.32,0,0,1-.26.38.5.5,0,0,1-.07.09c-.05,0-.1,0-.17,0a1.54,1.54,0,0,0-.22,0s0,0,0,0,0,0,0,0,0-.11,0-.24-.1,0-.15,0c.19,0,.34-.4.4-.53a2.18,2.18,0,0,0,.12-.36s0-.14,0-.17h-.05c.11-.14-.05-.56.17-.62,0,0,0,0,0,0s0-.17.06-.2.08-.24,0-.3-.07,0-.1,0a3.4,3.4,0,0,0-.19.32,1.58,1.58,0,0,1-.39.53c-.1.07-.11.5-.26.48-.12-.19-.15.44-.12.63l0,0s0,0,0,0,0,0-.1,0,0-.09,0-.11-.16.14-.17.15l-.35.2c-.08,0-.15,0-.24,0s-.29.18-.44.23c.24-.08.27.32.33.47-.6.18-1.49-.13-1.87.54-.25-.23-.21-.62-.29-.92a1.42,1.42,0,0,1-.13-.43c0-.06,0-.2-.12-.16s-.13.36-.15.45,0,.26-.05.39c.25.22.25.55.43.78-.31-.12-.61-.26-.92-.39-.07,0-.18-.11-.24,0S659.67,158.93,659.68,159Zm8-1.29s0,0,0,0S667.69,157.77,667.69,157.76Zm0,.08a.09.09,0,0,1,0-.06h.06A.09.09,0,0,1,667.73,157.84Zm0-.73s0,.24,0,.25S667.68,157.14,667.69,157.11Zm-.28,2.07s0,0,0,0Zm-1.51-1.29h0Zm0,0h0v0Zm-1.45-1.4h0v0Zm0-.08h0Zm0,.08h0Zm-.91,1.42a.29.29,0,0,1,0-.1A.59.59,0,0,1,663.53,157.91Zm2.72.12a.39.39,0,0,1,.07.16c-.07,0-.06,0-.07-.08S666.24,158,666.25,158Zm-2.05-.1s.15,0,.16,0a2,2,0,0,0-.47.1C664,157.94,664.14,157.85,664.2,157.93Zm-.53-.21,0,0S663.68,157.73,663.67,157.72Zm.09-.14h0Zm-.21.2,0,0Zm-.25.36c0,.07.14.12,0,.17A.43.43,0,0,1,663.31,158.14Z"/><path class="cls-7" d="M647.3,340.75s-3.94-2.57-5.64-1.82-1.88,1.4-.91,2.33a31.86,31.86,0,0,0,4.48,2.79Z"/><path class="cls-8" d="M647.22,341.1s-3.81-2.49-5.46-1.76-1.82,1.36-.88,2.26a30.83,30.83,0,0,0,4.34,2.7Z"/><path class="cls-7" d="M647.25,340.73s3.74,2.85,3.61,4.73-.67,2.25-1.87,1.65a32,32,0,0,1-4.12-3.3Z"/><polygon class="cls-8" points="640.63 340.19 640.05 341.1 626.56 363.23 636.33 369.15 650.33 346.46 640.63 340.19"/><path class="cls-8" d="M646.95,340.92s3.62,2.76,3.5,4.57-.65,2.18-1.81,1.6a30.91,30.91,0,0,1-4-3.19Z"/><path class="cls-9" d="M628.19,364.9l-.62,1.1,1.25.72-.45.8.5.29L627.61,370l2.41,1.39,2.33-4.09Zm.93,5.44a.7.7,0,0,1-.17-1,.69.69,0,0,1,.91-.34.7.7,0,0,1,.17,1A.69.69,0,0,1,629.12,370.34Z"/><ellipse class="cls-10" cx="629.49" cy="369.69" rx="0.75" ry="0.62" transform="translate(-3.12 734.02) rotate(-60.36)"/><polygon points="625.45 363.32 628.19 364.9 632.34 367.3 632.79 366.5 626.82 363.05 626.87 362.95 625.96 362.43 625.45 363.32"/><polygon points="632.79 366.5 632.85 366.4 626.87 362.95 626.82 363.05 632.79 366.5"/><polygon class="cls-9" points="631.35 369.24 631.85 369.53 632.3 368.73 633.63 369.5 634.25 368.4 632.34 367.3 630.01 371.39 630.1 371.44 631.35 369.24"/><polygon class="cls-11" points="631.35 369.24 631.85 369.53 632.3 368.73 633.63 369.5 634.25 368.4 632.34 367.3 630.01 371.39 630.1 371.44 631.35 369.24"/><polygon points="636.99 369.98 637.5 369.08 636.67 368.6 636.62 368.7 632.79 366.5 632.34 367.3 634.25 368.4 636.99 369.98"/><polygon class="cls-11" points="636.99 369.98 637.5 369.08 636.67 368.6 636.62 368.7 632.79 366.5 632.34 367.3 634.25 368.4 636.99 369.98"/><polygon points="636.67 368.6 632.85 366.4 632.79 366.5 636.62 368.7 636.67 368.6"/><polygon class="cls-11" points="636.67 368.6 632.85 366.4 632.79 366.5 636.62 368.7 636.67 368.6"/><path class="cls-12" d="M636.63,368.6l13.24-21.38.24-.22a4.32,4.32,0,0,0,.27-.69,3.63,3.63,0,0,0-1-3.18l-1-1-15.1,24.38Z"/><path class="cls-13" d="M668.29,337a7.59,7.59,0,1,1,7.7,7.51A7.66,7.66,0,0,1,668.29,337Z"/><path class="cls-14" d="M701.22,307.51s-6.94-8-14.37-7.86L668,333.76l14.17,8.49Z"/><polygon class="cls-15" points="670.84 342.49 673.68 344.19 671.71 347.5 668.88 345.8 670.84 342.49"/><ellipse class="cls-16" cx="670.32" cy="346.61" rx="0.57" ry="1.65" transform="translate(27.66 742.15) rotate(-58.95)"/><ellipse class="cls-15" cx="672.28" cy="343.3" rx="0.57" ry="1.65" transform="matrix(0.52, -0.86, 0.86, 0.52, 31.45, 742.23)"/><path class="cls-17" d="M672.57,347.66a1.5,1.5,0,0,0,.64,1.55,1.43,1.43,0,0,0,1,.2,3.33,3.33,0,0,0-.14,1,3.44,3.44,0,0,0,2.67,3.27,4.23,4.23,0,0,0,0,.59,4.71,4.71,0,0,0,5,4.44l.42,0a6.44,6.44,0,0,0,6.48,5.52h.32a6.43,6.43,0,0,0,5.71,4,6.42,6.42,0,0,0,8,5.63,7.18,7.18,0,0,0,4.46,1.44,7.35,7.35,0,0,0,7.17-7.48,7.44,7.44,0,0,0-.13-1.26,6.54,6.54,0,0,0,1.9-4.71,6.43,6.43,0,0,0-9.1-5.81,6.41,6.41,0,0,0-8.81-1.79,6.41,6.41,0,0,0-5.64-3.16h-.11a5,5,0,0,0-4.36-2.32,5.21,5.21,0,0,0-2.45.66,3.5,3.5,0,0,0-3.58-2.94,3.66,3.66,0,0,1-4.33.5,3.7,3.7,0,0,0-.77.1,1.44,1.44,0,0,0-.6-.79,1.48,1.48,0,0,0-1.77.15l-.25,0a1.14,1.14,0,0,0-.37-.39,1.06,1.06,0,0,0-1.26,1.7Z"/><path class="cls-17" d="M642.65,286.49a3.09,3.09,0,0,1,.7-1.74c3.58-4.85,8.5-10.28,14.1-13.74,10.06-6.22,14-4.36,17.24-3.06s5.49,10.14,13.79,2.76c9.52-8.46,9.14-9.71,12.11-15.58.86-1.7,1.91-2.17,2.65-2.26a1.13,1.13,0,0,1,1.24.53c.66,1.33-2.31,9.34-5.66,13.55-5.44,6.82-19.32,21.31-25.16,16.35s-4.67-8.84-12.84-5c-3.29,1.54-9.15,6-13.18,10.87C643.14,294.56,642.67,288.72,642.65,286.49Z"/><polygon class="cls-14" points="574.45 363.95 558.7 344.89 576.39 330 592.13 349.06 574.45 363.95"/><polygon class="cls-8" points="573.4 362.68 559.75 346.16 576.18 332.33 589.82 348.85 573.4 362.68"/><polygon class="cls-14" points="569.2 357.6 564.07 351.38 573.89 343.11 579.03 349.32 569.2 357.6"/><polygon class="cls-8" points="651.91 290.61 646.08 283.55 644.09 281.15 579.78 334.11 578.51 335.16 587.49 346.03 651.91 290.61"/><polygon class="cls-12" points="646.08 283.55 644.09 281.15 578.64 335.31 576.18 332.44 559.7 346.1 562.1 349 564.65 352.09 646.08 283.55"/><polygon class="cls-14" points="641.99 301.95 631.26 288.96 633.23 287.31 643.96 300.3 641.99 301.95"/><polygon class="cls-14" points="651.21 291.2 643.39 281.74 644.09 281.15 651.91 290.61 651.21 291.2"/><polygon class="cls-18" points="623.53 298.08 631.72 307.99 640.64 300.31 632.62 290.6 623.53 298.08"/><polygon class="cls-18" points="613.62 306.25 621.98 316.37 609.12 327.42 600.53 317.02 613.62 306.25"/><polygon class="cls-14" points="572.49 368.12 554.53 346.38 557.87 343.57 575.83 365.31 572.49 368.12"/><path class="cls-19" d="M653.52,206.63a2.22,2.22,0,0,1,.38.63c.1.27,0,.44.11.71s0,.53.42.32.36-.25.63-.33.28.14.17-.35-.29-.36,0-.75.17-.35.63-.55.55-.16.68-.42a1.7,1.7,0,0,0,.12-.7c0-.31.22-.21.31-.38s.17-.35.08-.39-.06-.35-.06-.35l.43-.86-3.27-.47s-.43,1.08-.52,1.26a.35.35,0,0,0,.11.49.75.75,0,0,1,.29.36l-.27.3-.27.08s-.45.42-.21.65A1.16,1.16,0,0,1,653.52,206.63Z"/><path class="cls-20" d="M653.64,206.15a2,2,0,0,1,.35.57c.09.24,0,.4.1.64s0,.47.38.29.32-.23.57-.3.25.13.16-.31-.26-.33,0-.67.16-.31.56-.49.49-.14.61-.37a1.53,1.53,0,0,0,.11-.63c0-.28.2-.19.28-.35s.16-.31.07-.35-.05-.32-.05-.32l.39-.78-2.94-.42s-.39,1-.46,1.13a.31.31,0,0,0,.09.44.68.68,0,0,1,.26.33l-.24.27-.25.07s-.4.38-.19.59A1,1,0,0,1,653.64,206.15Z"/><path class="cls-21" d="M653.93,204.93a1.44,1.44,0,0,1,.25.41c.06.17,0,.29.07.46s0,.34.27.21.23-.16.41-.21.18.09.11-.22-.18-.23,0-.48.11-.22.41-.36.35-.1.44-.27A1.1,1.1,0,0,0,656,204c0-.2.14-.14.2-.25s.11-.22.05-.25,0-.23,0-.23l.28-.56-2.12-.3s-.28.7-.33.81a.22.22,0,0,0,.07.32.49.49,0,0,1,.18.23l-.17.19-.18.05s-.29.27-.14.42A.75.75,0,0,1,653.93,204.93Z"/><path class="cls-18" d="M668.35,179.88l-10.7,23.44a.38.38,0,0,1-.53,0c-.31-.27-.18-.31-.49-.14s-.31.4-.62.13-.18-.31-.58-.18-.36.27-.67.22-.31,0-.49.09a.35.35,0,0,1-.36,0l11.43-24.9a.53.53,0,0,1,.64-.29,14.1,14.1,0,0,1,2.15,1A.48.48,0,0,1,668.35,179.88Z"/><path class="cls-8" d="M660.83,188.38l4.52-9.84a.53.53,0,0,1,.64-.29,14.1,14.1,0,0,1,2.15,1,.48.48,0,0,1,.21.63l-4.51,9.88"/><path class="cls-14" d="M660.83,188.38l4.52-9.84a.53.53,0,0,1,.64-.29,14.1,14.1,0,0,1,2.15,1"/><path class="cls-19" d="M671.65,206.87a2.19,2.19,0,0,1,.71.17c.26.12.32.3.57.42s.35.39.53-.07.08-.43.22-.68.3-.1-.12-.37-.46-.05-.51-.54-.12-.37.06-.83.28-.5.19-.77-.22-.33-.41-.58,0-.31,0-.49-.12-.37-.22-.33-.29-.21-.29-.21l-.3-.92-2.65,2s.46,1.07.51,1.25a.34.34,0,0,0,.42.27.74.74,0,0,1,.46.05l0,.4-.14.25s0,.62.31.61S671.65,206.87,671.65,206.87Z"/><path class="cls-20" d="M671.39,206.45a2,2,0,0,1,.64.15c.23.11.29.27.52.38s.31.35.47-.07.07-.39.2-.61.27-.09-.11-.33-.41,0-.45-.49-.11-.33.05-.75.25-.45.17-.7-.2-.3-.37-.52,0-.28,0-.44-.11-.33-.2-.3-.26-.19-.26-.19l-.27-.83-2.38,1.8s.41,1,.46,1.13a.31.31,0,0,0,.37.24.67.67,0,0,1,.41,0l0,.36-.13.22s0,.56.28.55S671.39,206.45,671.39,206.45Z"/><path class="cls-21" d="M670.75,205.38a1.42,1.42,0,0,1,.46.11c.17.08.21.2.37.27s.22.25.34,0,.05-.28.14-.44.19-.06-.08-.24-.3,0-.33-.35-.08-.24,0-.54.18-.32.12-.5-.14-.22-.26-.37,0-.2,0-.32-.08-.24-.14-.22-.19-.14-.19-.14L671,202l-1.72,1.3s.3.69.33.81a.22.22,0,0,0,.27.17.48.48,0,0,1,.3,0v.26l-.09.16s0,.4.2.4S670.75,205.38,670.75,205.38Z"/><path class="cls-18" d="M663.42,177.44l8.84,24.14s0,.32-.41.35-.35-.1-.44.25.06.51-.35.54-.35-.1-.54.28-.07.44-.32.63-.25.19-.29.41a.36.36,0,0,1-.22.28l-9.34-25.69a.54.54,0,0,1,.26-.66,14.2,14.2,0,0,1,2.23-.83A.48.48,0,0,1,663.42,177.44Z"/><path class="cls-8" d="M664,188.8l-3.69-10.15a.54.54,0,0,1,.26-.66,14.2,14.2,0,0,1,2.23-.83.48.48,0,0,1,.59.29l3.73,10.18"/><path class="cls-14" d="M664,188.8l-3.69-10.15a.54.54,0,0,1,.26-.66,14.2,14.2,0,0,1,2.23-.83"/><path class="cls-9" d="M629.45,255.47l-.41,1.72,2,.46-.29,1.25.78.18-.81,3.44,3.78.89L636,257Zm3.39,6.91a1.06,1.06,0,1,1,1.09-.82A1,1,0,0,1,632.84,262.37Z"/><ellipse class="cls-10" cx="633.08" cy="261.36" rx="1.04" ry="0.87" transform="translate(233.42 817.57) rotate(-76.73)"/><polygon points="625.15 254.45 629.45 255.47 635.96 257.01 636.25 255.76 626.88 253.54 626.91 253.38 625.48 253.05 625.15 254.45"/><rect x="631.5" y="249.75" width="0.16" height="9.64" transform="translate(238.87 810.89) rotate(-76.73)"/><polygon class="cls-9" points="635.39 260.01 636.17 260.19 636.47 258.94 638.55 259.44 638.96 257.72 635.96 257.01 634.45 263.42 634.58 263.45 635.39 260.01"/><polygon class="cls-11" points="635.39 260.01 636.17 260.19 636.47 258.94 638.55 259.44 638.96 257.72 635.96 257.01 634.45 263.42 634.58 263.45 635.39 260.01"/><polygon class="cls-8" points="636.29 255.6 642.28 257.02 650.87 220.61 644.88 219.2 635.5 216.98 626.91 253.38 636.29 255.6"/><rect class="cls-12" x="624.88" y="235.03" width="37.4" height="6.16" transform="translate(264.14 809.87) rotate(-76.73)"/><polygon points="643.25 258.73 643.59 257.33 642.28 257.02 642.25 257.18 636.25 255.76 635.96 257.01 638.96 257.72 643.25 258.73"/><polygon class="cls-11" points="643.25 258.73 643.59 257.33 642.28 257.02 642.25 257.18 636.25 255.76 635.96 257.01 638.96 257.72 643.25 258.73"/><rect x="639.19" y="253.31" width="0.16" height="6.16" transform="translate(242.65 819.5) rotate(-76.7)"/><rect class="cls-11" x="639.19" y="253.31" width="0.16" height="6.16" transform="translate(242.65 819.5) rotate(-76.7)"/><rect class="cls-14" x="634.09" y="216.41" width="18.61" height="2.41" transform="translate(1219.44 577.43) rotate(-166.7)"/><path class="cls-22" d="M531.69,354.73c10.24-39.3,122-226.9,122-226.9s46-4.85,69.88,13.7l39.58,248.6c4.93,26.75-11.76,52.94-38.75,60.65-30.65,8.76-71.9,14.86-109.49,1.62C543.42,427.23,524.06,384,531.69,354.73Z"/><g class="cls-23"><path class="cls-24" d="M646.12,414.56c-.07,2.59.17,5.49-.52,8-.54,1.93-.84,4-1.36,5.9a8.89,8.89,0,0,0-.19,1.4l9,1.79a2.43,2.43,0,0,1-.18-1.5,19.71,19.71,0,0,0,.37-4.29,62.87,62.87,0,0,0,0-6.4c-.13-1.63-.33-3.16-.34-4.83,0-1.22.43-4.24-.23-5.24a8.57,8.57,0,0,0,.14-1.44,11.16,11.16,0,0,1,.3-1.26,5,5,0,0,1,.79-1.45,11.5,11.5,0,0,0,1.13-2c.47-.88,1.08-1.69,1.53-2.63a8.42,8.42,0,0,0,.56-4.45c-.21-1.16-1-1.49-1.91-1.71a4,4,0,0,0-4.28,1.66c-.19.29-.6,1.42-.23,1.67a8.47,8.47,0,0,1-.27,2c-.09.84-.84,1.27-1.19,2-.22.45-.13,1-.36,1.43-.8,1.42-.12,2.76-.26,4.23,0,.36-1.76.06-2,.07-.42,0-.28.91-.3,1.21C646.16,410.62,646.17,412.59,646.12,414.56Z"/><path class="cls-24" d="M623.75,425.67s0,0,0,.15l5,1c.07-.55.16-1.09.27-1.66.05-.28.29-1.88.53-1.94.4-.1.57-.71.73-1.09a18.46,18.46,0,0,0,1-3.82c.17-1.21.32-1.38-.81-1.62l-2-.43c-.6-.13-2.75-1.07-2.74.27-1.92-.33-3.7-1.13-5.67-1.29-1.3-.09-3.57-.52-4.81.41-.57.42.33,2.69.31,2.71.43-.46,3.79.6,4.16,1.14C620.19,420.21,624.82,425,623.75,425.67Z"/><path class="cls-24" d="M624.28,507.94c0,.2.12.36.37.31,0,0,.13-.1.21-.2Z"/></g><path class="cls-25" d="M719,145.48l.64-6.93s.69-3.2-1-3.76-8-8.15-12.52-8.36-33-.54-33-.54-12.67-1.89-19.4,2.2a41.94,41.94,0,0,0-5,3c-.67.71-2.26,2.79-1.82,4.25s17.32,13,19.29,14.35,9.07,3.76,13.66,4.13,11.3,1.11,12.95.28,4.3-3.54,6.72-4.1,10.55.7,12.81,1.09,4,1.24,5.21-.07S718.52,147.2,719,145.48Z"/><path class="cls-26" d="M646.81,135.34c.43,1.46,17.32,13,19.29,14.35s9.07,3.76,13.66,4.13,11.3,1.11,12.95.28,4.3-3.54,6.72-4.1,10.55.7,12.81,1.09,4,1.24,5.21-.07l.54-.71a5.17,5.17,0,0,0,.66-1.14,11.94,11.94,0,0,0,.7-4.75v-2.88l-19.79,4a6.76,6.76,0,0,0-2.75-.2L684,147.64,681.52,143Z"/><path class="cls-27" d="M719.86,137s0-3-1.55-3.52-9.31-7.82-13.45-7.9c-3-.06-17.93.21-26.09.37h-.5l-4.84.1s-11.73-1.42-17.83,2.52a38.7,38.7,0,0,0-4.56,2.9c-.6.68-2,2.63-1.58,4s16.3,11.59,18.14,12.74"/><path class="cls-5" d="M695.63,114.87s10.58-33.78,27.23-40.16c0,0,13.32-4.13,15.52,8.92s-18.18,47.79-18.18,47.79Z"/><path class="cls-26" d="M720.2,131.41s27.2-15.92,22.24-44.07-25.53-9.09-25.53-9.09l-3.55,48.88Z"/><path class="cls-28" d="M719.5,135.91l1-4.81s-9.16-10.41-17.65-13.52-19.58-7.08-26.12-.88c0,0-4.15,3.43-5.26,10.7,0,0,6.16,3.81,20,5.49S719.5,135.91,719.5,135.91Z"/><path class="cls-29" d="M720.43,131.3s-14.72-13.76-28.62-15.88-16.59,6.84-19.38,12.92l6.12,1.94s0,0,.05,0Z"/><path class="cls-5" d="M695.86,133.42c-8.27-.09-17.31-3.13-17.31-3.13s5.13-8.23,14.28-6.51a59.4,59.4,0,0,1,18.55,7"/><path class="cls-5" d="M649.13,130.07s-1.84.79-1.62,1.79a2.44,2.44,0,0,0-.83,1.79s-.87,1.23-.55,1.7S662.2,148,663.71,148.44s2.91,2.16,6.38,2.61,24.54-1.25,25.12-1.56,1.2-1.15,1-1.33c0,0,1.5-.94.93-1.46,0,0,1.12-1,.27-1.47,0,0-24.54-.2-26.54-.82s-19.41-12.44-19.5-12.73A8.54,8.54,0,0,0,649.13,130.07Z"/><polygon class="cls-30" points="741.55 62.91 735.61 73.9 738.47 76.03 745.25 63.65 741.55 62.91"/><polygon class="cls-26" points="740.63 62.73 734.68 73.72 737.54 75.85 744.32 63.47 740.63 62.73"/><g class="cls-31"><circle class="cls-32" cx="167.7" cy="286.53" r="2.63" transform="translate(-119.66 452.79) rotate(-89.71)"/><circle class="cls-32" cx="141.74" cy="234.52" r="2.34" transform="translate(-93.49 375.08) rotate(-89.71)"/><circle class="cls-32" cx="235.94" cy="232.94" r="2.63" transform="translate(-95.61 233.4) rotate(-44.71)"/><circle class="cls-32" cx="175.98" cy="224.1" r="1.71" transform="translate(-49 398.95) rotate(-89.71)"/><circle class="cls-32" cx="199.24" cy="246.55" r="1.53" transform="translate(-48.3 444.56) rotate(-89.71)"/><circle class="cls-32" cx="185.49" cy="244.66" r="1.15" transform="translate(-60.09 428.93) rotate(-89.71)"/><ellipse class="cls-32" cx="151.08" cy="241.5" rx="1.15" ry="1.19" transform="translate(-91.17 391.37) rotate(-89.71)"/><ellipse class="cls-32" cx="175.67" cy="241.17" rx="1.02" ry="1.06" transform="matrix(0.01, -1, 1, 0.01, -66.38, 415.64)"/><ellipse class="cls-32" cx="165.57" cy="243.56" rx="0.77" ry="0.8" transform="translate(-78.82 407.9) rotate(-89.71)"/><ellipse class="cls-32" cx="213.63" cy="260.72" rx="0.77" ry="0.8" transform="translate(-48.15 473.04) rotate(-89.71)"/><ellipse class="cls-32" cx="135.91" cy="271.57" rx="1.15" ry="1.19" transform="translate(-136.34 406.13) rotate(-89.71)"/><ellipse class="cls-32" cx="164.85" cy="269.16" rx="1.02" ry="1.06" transform="matrix(0.01, -1, 1, 0.01, -105.12, 432.66)"/><ellipse class="cls-32" cx="154.78" cy="264.98" rx="0.77" ry="0.8" transform="translate(-110.97 418.43) rotate(-89.71)"/><ellipse class="cls-32" cx="207.89" cy="271.73" rx="1.19" ry="1.15" transform="translate(-64.88 478.26) rotate(-89.71)"/><ellipse class="cls-32" cx="210.31" cy="300.67" rx="1.06" ry="1.02" transform="translate(-91.41 509.47) rotate(-89.71)"/><ellipse class="cls-32" cx="214.49" cy="290.6" rx="0.8" ry="0.77" transform="translate(-77.18 503.63) rotate(-89.71)"/><ellipse class="cls-32" cx="210.16" cy="231.64" rx="1.02" ry="1.06" transform="matrix(0.01, -1, 1, 0.01, -22.53, 440.64)"/><circle class="cls-32" cx="205.94" cy="150.08" r="2.63" transform="translate(54.83 355.26) rotate(-89.71)"/><circle class="cls-32" cx="231.9" cy="202.08" r="2.34" transform="translate(28.66 432.97) rotate(-89.71)"/><circle class="cls-32" cx="137.7" cy="203.66" r="2.63" transform="translate(-103.45 155.81) rotate(-44.71)"/><circle class="cls-32" cx="197.66" cy="212.51" r="1.71" transform="translate(-15.83 409.1) rotate(-89.71)"/><circle class="cls-32" cx="174.4" cy="190.05" r="1.53" transform="translate(-16.52 363.49) rotate(-89.71)"/><circle class="cls-32" cx="188.14" cy="191.94" r="1.15" transform="matrix(0.01, -1, 1, 0.01, -4.73, 379.12)"/><ellipse class="cls-32" cx="222.56" cy="195.1" rx="1.15" ry="1.19" transform="translate(26.34 416.68) rotate(-89.71)"/><ellipse class="cls-32" cx="197.97" cy="195.43" rx="1.02" ry="1.06" transform="translate(1.55 392.42) rotate(-89.71)"/><ellipse class="cls-32" cx="208.07" cy="193.05" rx="0.77" ry="0.8" transform="translate(13.99 400.15) rotate(-89.71)"/><ellipse class="cls-32" cx="160" cy="175.89" rx="0.77" ry="0.8" transform="translate(-16.68 335.01) rotate(-89.71)"/><ellipse class="cls-32" cx="237.72" cy="165.03" rx="1.15" ry="1.19" transform="translate(71.51 401.92) rotate(-89.71)"/><ellipse class="cls-32" cx="208.78" cy="167.45" rx="1.02" ry="1.06" transform="translate(40.3 375.39) rotate(-89.71)"/><ellipse class="cls-32" cx="218.86" cy="171.62" rx="0.77" ry="0.8" transform="translate(46.14 389.62) rotate(-89.71)"/><ellipse class="cls-32" cx="165.75" cy="164.87" rx="1.19" ry="1.15" transform="translate(0.05 329.79) rotate(-89.71)"/><ellipse class="cls-32" cx="163.33" cy="135.93" rx="1.06" ry="1.02" transform="translate(26.58 298.58) rotate(-89.71)"/><ellipse class="cls-32" cx="159.15" cy="146" rx="0.8" ry="0.77" transform="translate(12.35 304.42) rotate(-89.71)"/><ellipse class="cls-32" cx="163.48" cy="204.96" rx="1.02" ry="1.06" transform="translate(-42.3 367.41) rotate(-89.71)"/><circle class="cls-32" cx="285.38" cy="310.26" r="2.63" transform="translate(-26.3 594.09) rotate(-89.71)"/><circle class="cls-32" cx="259.42" cy="258.26" r="2.34" transform="translate(-0.14 516.38) rotate(-89.71)"/><circle class="cls-32" cx="353.62" cy="256.68" r="2.63" transform="translate(-78.26 323.07) rotate(-44.71)"/><circle class="cls-32" cx="293.66" cy="247.83" r="1.71" transform="translate(44.36 540.25) rotate(-89.71)"/><circle class="cls-32" cx="316.92" cy="270.29" r="1.53" transform="matrix(0.01, -1, 1, 0.01, 45.05, 585.85)"/><circle class="cls-32" cx="303.18" cy="268.4" r="1.15" transform="translate(33.26 570.23) rotate(-89.71)"/><ellipse class="cls-32" cx="268.76" cy="265.24" rx="1.15" ry="1.19" transform="translate(2.18 532.66) rotate(-89.71)"/><ellipse class="cls-32" cx="293.35" cy="264.91" rx="1.02" ry="1.06" transform="translate(26.98 556.93) rotate(-89.71)"/><ellipse class="cls-32" cx="283.25" cy="267.29" rx="0.77" ry="0.8" transform="translate(14.54 549.2) rotate(-89.71)"/><ellipse class="cls-32" cx="331.32" cy="284.45" rx="0.77" ry="0.8" transform="matrix(0.01, -1, 1, 0.01, 45.21, 614.34)"/><ellipse class="cls-32" cx="253.6" cy="295.31" rx="1.15" ry="1.19" transform="translate(-42.98 547.42) rotate(-89.71)"/><ellipse class="cls-32" cx="282.54" cy="292.89" rx="1.02" ry="1.06" transform="translate(-11.77 573.96) rotate(-89.71)"/><ellipse class="cls-32" cx="272.46" cy="288.72" rx="0.77" ry="0.8" transform="translate(-17.61 559.73) rotate(-89.71)"/><ellipse class="cls-32" cx="325.57" cy="295.47" rx="1.19" ry="1.15" transform="translate(28.48 619.56) rotate(-89.71)"/><ellipse class="cls-32" cx="327.99" cy="324.41" rx="1.06" ry="1.02" transform="matrix(0.01, -1, 1, 0.01, 1.94, 650.77)"/><ellipse class="cls-32" cx="332.17" cy="314.34" rx="0.8" ry="0.77" transform="translate(16.17 644.93) rotate(-89.71)"/><ellipse class="cls-32" cx="327.84" cy="255.38" rx="1.02" ry="1.06" transform="matrix(0.01, -1, 1, 0.01, 70.82, 581.94)"/><circle class="cls-32" cx="323.62" cy="173.81" r="2.63" transform="translate(148.18 496.56) rotate(-89.71)"/><circle class="cls-32" cx="349.58" cy="225.82" r="2.34" transform="translate(122.02 574.27) rotate(-89.71)"/><circle class="cls-32" cx="255.38" cy="227.4" r="2.63" transform="translate(-86.09 245.47) rotate(-44.71)"/><circle class="cls-32" cx="315.34" cy="236.24" r="1.71" transform="translate(77.53 550.4) rotate(-89.71)"/><circle class="cls-32" cx="292.08" cy="213.79" r="1.53" transform="translate(76.83 504.79) rotate(-89.71)"/><circle class="cls-32" cx="305.82" cy="215.68" r="1.15" transform="translate(88.62 520.42) rotate(-89.71)"/><ellipse class="cls-32" cx="340.24" cy="218.84" rx="1.15" ry="1.19" transform="translate(119.7 557.98) rotate(-89.71)"/><ellipse class="cls-32" cx="315.65" cy="219.17" rx="1.02" ry="1.06" transform="translate(94.91 533.71) rotate(-89.71)"/><ellipse class="cls-32" cx="325.75" cy="216.78" rx="0.77" ry="0.8" transform="translate(107.34 541.45) rotate(-89.71)"/><ellipse class="cls-32" cx="277.69" cy="199.62" rx="0.77" ry="0.8" transform="translate(76.67 476.31) rotate(-89.71)"/><ellipse class="cls-32" cx="355.41" cy="188.77" rx="1.15" ry="1.19" transform="translate(164.86 543.22) rotate(-89.71)"/><ellipse class="cls-32" cx="326.47" cy="191.18" rx="1.02" ry="1.06" transform="matrix(0.01, -1, 1, 0.01, 133.65, 516.69)"/><ellipse class="cls-32" cx="336.54" cy="195.36" rx="0.77" ry="0.8" transform="translate(139.49 530.92) rotate(-89.71)"/><ellipse class="cls-32" cx="283.43" cy="188.61" rx="1.19" ry="1.15" transform="translate(93.4 471.09) rotate(-89.71)"/><ellipse class="cls-32" cx="281.01" cy="159.67" rx="1.06" ry="1.02" transform="translate(119.94 439.88) rotate(-89.71)"/><ellipse class="cls-32" cx="276.83" cy="169.74" rx="0.8" ry="0.77" transform="translate(105.71 445.72) rotate(-89.71)"/><ellipse class="cls-32" cx="281.16" cy="228.7" rx="1.02" ry="1.06" transform="translate(51.06 508.71) rotate(-89.71)"/><circle class="cls-32" cx="158.83" cy="106.95" r="2.63" transform="translate(51.08 265.24) rotate(-89.71)"/><circle class="cls-32" cx="132.86" cy="54.95" r="2.34" transform="translate(77.25 187.53) rotate(-89.71)"/><circle class="cls-32" cx="227.07" cy="53.36" r="2.63" transform="translate(28.16 175.2) rotate(-44.71)"/><circle class="cls-32" cx="167.1" cy="44.52" r="1.71" transform="translate(121.74 211.4) rotate(-89.71)"/><circle class="cls-32" cx="190.37" cy="66.98" r="1.53" transform="translate(122.44 257.01) rotate(-89.71)"/><circle class="cls-32" cx="176.62" cy="65.09" r="1.15" transform="translate(110.65 241.38) rotate(-89.71)"/><ellipse class="cls-32" cx="142.2" cy="61.92" rx="1.15" ry="1.19" transform="translate(79.57 203.82) rotate(-89.71)"/><ellipse class="cls-32" cx="166.8" cy="61.6" rx="1.02" ry="1.06" transform="translate(104.36 228.09) rotate(-89.71)"/><ellipse class="cls-32" cx="156.69" cy="63.98" rx="0.77" ry="0.8" transform="translate(91.92 220.35) rotate(-89.71)"/><ellipse class="cls-32" cx="204.76" cy="81.14" rx="0.77" ry="0.8" transform="translate(122.59 285.49) rotate(-89.71)"/><ellipse class="cls-32" cx="127.04" cy="92" rx="1.15" ry="1.19" transform="translate(34.4 218.58) rotate(-89.71)"/><ellipse class="cls-32" cx="155.98" cy="89.58" rx="1.02" ry="1.06" transform="translate(65.62 245.11) rotate(-89.71)"/><ellipse class="cls-32" cx="145.91" cy="85.4" rx="0.77" ry="0.8" transform="translate(59.77 230.88) rotate(-89.71)"/><ellipse class="cls-32" cx="199.02" cy="92.16" rx="1.19" ry="1.15" transform="translate(105.86 290.71) rotate(-89.71)"/><ellipse class="cls-32" cx="201.43" cy="121.1" rx="1.06" ry="1.02" transform="matrix(0.01, -1, 1, 0.01, 79.33, 321.92)"/><ellipse class="cls-32" cx="205.61" cy="111.03" rx="0.8" ry="0.77" transform="translate(93.56 316.08) rotate(-89.71)"/><ellipse class="cls-32" cx="201.28" cy="52.07" rx="1.02" ry="1.06" transform="translate(148.21 253.09) rotate(-89.71)"/><circle class="cls-32" cx="223.03" cy="22.51" r="2.34" transform="translate(199.4 245.42) rotate(-89.71)"/><circle class="cls-32" cx="128.82" cy="24.09" r="2.63" transform="translate(20.33 97.6) rotate(-44.71)"/><circle class="cls-32" cx="188.79" cy="32.93" r="1.71" transform="translate(154.91 221.55) rotate(-89.71)"/><circle class="cls-32" cx="165.52" cy="10.48" r="1.53" transform="translate(154.22 175.95) rotate(-89.71)"/><circle class="cls-32" cx="179.27" cy="12.36" r="1.15" transform="translate(166.01 191.57) rotate(-89.71)"/><ellipse class="cls-32" cx="213.68" cy="15.53" rx="1.15" ry="1.19" transform="translate(197.08 229.13) rotate(-89.71)"/><ellipse class="cls-32" cx="189.09" cy="15.86" rx="1.02" ry="1.06" transform="translate(172.29 204.87) rotate(-89.71)"/><ellipse class="cls-32" cx="199.2" cy="13.47" rx="0.77" ry="0.8" transform="translate(184.73 212.6) rotate(-89.71)"/><ellipse class="cls-32" cx="154.6" cy="25.39" rx="1.02" ry="1.06" transform="matrix(0.01, -1, 1, 0.01, 128.44, 179.86)"/><circle class="cls-32" cx="276.51" cy="130.69" r="2.63" transform="translate(144.44 406.54) rotate(-89.71)"/><circle class="cls-32" cx="250.54" cy="78.69" r="2.34" transform="matrix(0.01, -1, 1, 0.01, 170.6, 328.83)"/><circle class="cls-32" cx="344.75" cy="77.1" r="2.63" transform="translate(45.51 264.86) rotate(-44.71)"/><circle class="cls-32" cx="284.78" cy="68.26" r="1.71" transform="translate(215.1 352.7) rotate(-89.71)"/><circle class="cls-32" cx="308.05" cy="90.72" r="1.53" transform="matrix(0.01, -1, 1, 0.01, 215.79, 398.31)"/><circle class="cls-32" cx="294.3" cy="88.83" r="1.15" transform="translate(204 382.68) rotate(-89.71)"/><ellipse class="cls-32" cx="259.89" cy="85.66" rx="1.15" ry="1.19" transform="translate(172.92 345.12) rotate(-89.71)"/><ellipse class="cls-32" cx="284.48" cy="85.34" rx="1.02" ry="1.06" transform="matrix(0.01, -1, 1, 0.01, 197.72, 369.38)"/><ellipse class="cls-32" cx="274.37" cy="87.72" rx="0.77" ry="0.8" transform="translate(185.28 361.65) rotate(-89.71)"/><ellipse class="cls-32" cx="322.44" cy="104.88" rx="0.77" ry="0.8" transform="matrix(0.01, -1, 1, 0.01, 215.95, 426.79)"/><ellipse class="cls-32" cx="244.72" cy="115.74" rx="1.15" ry="1.19" transform="translate(127.76 359.87) rotate(-89.71)"/><ellipse class="cls-32" cx="273.66" cy="113.32" rx="1.02" ry="1.06" transform="matrix(0.01, -1, 1, 0.01, 158.97, 386.41)"/><ellipse class="cls-32" cx="263.59" cy="109.14" rx="0.77" ry="0.8" transform="translate(153.13 372.18) rotate(-89.71)"/><ellipse class="cls-32" cx="316.7" cy="115.9" rx="1.19" ry="1.15" transform="translate(199.22 432.01) rotate(-89.71)"/><ellipse class="cls-32" cx="319.11" cy="144.84" rx="1.06" ry="1.02" transform="matrix(0.01, -1, 1, 0.01, 172.68, 463.22)"/><ellipse class="cls-32" cx="323.29" cy="134.76" rx="0.8" ry="0.77" transform="translate(186.91 457.38) rotate(-89.71)"/><ellipse class="cls-32" cx="318.97" cy="75.81" rx="1.02" ry="1.06" transform="translate(241.56 394.39) rotate(-89.71)"/><circle class="cls-32" cx="340.71" cy="46.25" r="2.34" transform="translate(292.76 386.72) rotate(-89.71)"/><circle class="cls-32" cx="246.5" cy="47.83" r="2.63" transform="translate(37.68 187.27) rotate(-44.71)"/><circle class="cls-32" cx="306.47" cy="56.67" r="1.71" transform="translate(248.27 362.85) rotate(-89.71)"/><circle class="cls-32" cx="283.2" cy="34.21" r="1.53" transform="matrix(0.01, -1, 1, 0.01, 247.57, 317.24)"/><circle class="cls-32" cx="296.95" cy="36.1" r="1.15" transform="matrix(0.01, -1, 1, 0.01, 259.36, 332.87)"/><ellipse class="cls-32" cx="331.37" cy="39.27" rx="1.15" ry="1.19" transform="translate(290.44 370.43) rotate(-89.71)"/><ellipse class="cls-32" cx="306.77" cy="39.59" rx="1.02" ry="1.06" transform="translate(265.65 346.16) rotate(-89.71)"/><ellipse class="cls-32" cx="316.88" cy="37.21" rx="0.77" ry="0.8" transform="translate(278.08 353.9) rotate(-89.71)"/><ellipse class="cls-32" cx="268.81" cy="20.05" rx="0.77" ry="0.8" transform="translate(247.42 288.76) rotate(-89.71)"/><ellipse class="cls-32" cx="346.53" cy="9.19" rx="1.15" ry="1.19" transform="translate(335.6 355.67) rotate(-89.71)"/><ellipse class="cls-32" cx="317.59" cy="11.61" rx="1.02" ry="1.06" transform="translate(304.39 329.14) rotate(-89.71)"/><ellipse class="cls-32" cx="327.66" cy="15.79" rx="0.77" ry="0.8" transform="translate(310.23 343.37) rotate(-89.71)"/><ellipse class="cls-32" cx="274.55" cy="9.04" rx="1.19" ry="1.15" transform="translate(264.14 283.54) rotate(-89.71)"/><ellipse class="cls-32" cx="272.29" cy="49.13" rx="1.02" ry="1.06" transform="translate(221.8 321.16) rotate(-89.71)"/><circle class="cls-32" cx="204.23" cy="490.61" r="2.63" transform="translate(-287.39 692.38) rotate(-89.71)"/><ellipse class="cls-32" cx="158.3" cy="516.42" rx="0.77" ry="0.8" transform="translate(-358.9 672.13) rotate(-89.71)"/><ellipse class="cls-32" cx="236.02" cy="505.56" rx="1.15" ry="1.19" transform="translate(-270.72 739.05) rotate(-89.71)"/><ellipse class="cls-32" cx="207.08" cy="507.98" rx="1.02" ry="1.06" transform="translate(-301.93 712.51) rotate(-89.71)"/><ellipse class="cls-32" cx="217.15" cy="512.16" rx="0.77" ry="0.8" transform="translate(-296.08 726.74) rotate(-89.71)"/><ellipse class="cls-32" cx="164.04" cy="505.4" rx="1.19" ry="1.15" transform="translate(-342.17 666.91) rotate(-89.71)"/><ellipse class="cls-32" cx="161.63" cy="476.46" rx="1.06" ry="1.02" transform="translate(-315.64 635.7) rotate(-89.71)"/><ellipse class="cls-32" cx="157.45" cy="486.53" rx="0.8" ry="0.77" transform="translate(-329.87 641.54) rotate(-89.71)"/><circle class="cls-32" cx="321.91" cy="514.35" r="2.63" transform="translate(-194.04 833.68) rotate(-89.71)"/><ellipse class="cls-32" cx="279.31" cy="500.2" rx="1.06" ry="1.02" transform="matrix(0.01, -1, 1, 0.01, -222.28, 777)"/><ellipse class="cls-32" cx="275.13" cy="510.27" rx="0.8" ry="0.77" transform="translate(-236.51 782.84) rotate(-89.71)"/><circle class="cls-32" cx="157.12" cy="447.48" r="2.63" transform="translate(-291.14 602.36) rotate(-89.71)"/><circle class="cls-32" cx="131.16" cy="395.48" r="2.34" transform="translate(-264.97 524.65) rotate(-89.71)"/><circle class="cls-32" cx="225.36" cy="393.9" r="2.63" transform="matrix(0.71, -0.7, 0.7, 0.71, -211.92, 272.53)"/><circle class="cls-32" cx="165.4" cy="385.05" r="1.71" transform="translate(-220.48 548.52) rotate(-89.71)"/><circle class="cls-32" cx="188.66" cy="407.51" r="1.53" transform="translate(-219.79 594.13) rotate(-89.71)"/><circle class="cls-32" cx="174.92" cy="405.62" r="1.15" transform="translate(-231.58 578.5) rotate(-89.71)"/><ellipse class="cls-32" cx="140.5" cy="402.46" rx="1.15" ry="1.19" transform="translate(-262.65 540.94) rotate(-89.71)"/><ellipse class="cls-32" cx="165.09" cy="402.13" rx="1.02" ry="1.06" transform="matrix(0.01, -1, 1, 0.01, -237.86, 565.21)"/><ellipse class="cls-32" cx="154.99" cy="404.51" rx="0.77" ry="0.8" transform="translate(-250.3 557.47) rotate(-89.71)"/><ellipse class="cls-32" cx="203.05" cy="421.67" rx="0.77" ry="0.8" transform="translate(-219.63 622.62) rotate(-89.71)"/><ellipse class="cls-32" cx="125.33" cy="432.53" rx="1.15" ry="1.19" transform="translate(-307.82 555.7) rotate(-89.71)"/><ellipse class="cls-32" cx="154.27" cy="430.11" rx="1.02" ry="1.06" transform="matrix(0.01, -1, 1, 0.01, -276.61, 582.23)"/><ellipse class="cls-32" cx="144.2" cy="425.94" rx="0.77" ry="0.8" transform="translate(-282.45 568) rotate(-89.71)"/><ellipse class="cls-32" cx="197.31" cy="432.69" rx="1.19" ry="1.15" transform="matrix(0.01, -1, 1, 0.01, -236.36, 627.83)"/><ellipse class="cls-32" cx="199.73" cy="461.63" rx="1.06" ry="1.02" transform="matrix(0.01, -1, 1, 0.01, -262.89, 659.04)"/><ellipse class="cls-32" cx="203.91" cy="451.56" rx="0.8" ry="0.77" transform="translate(-248.66 653.2) rotate(-89.71)"/><ellipse class="cls-32" cx="199.58" cy="392.6" rx="1.02" ry="1.06" transform="matrix(0.01, -1, 1, 0.01, -194.01, 590.21)"/><circle class="cls-32" cx="195.36" cy="311.03" r="2.63" transform="translate(-116.65 504.83) rotate(-89.71)"/><circle class="cls-32" cx="221.32" cy="363.04" r="2.34" transform="matrix(0.01, -1, 1, 0.01, -142.82, 582.54)"/><circle class="cls-32" cx="127.12" cy="344.62" r="2.63" transform="translate(-205.68 189.15) rotate(-44.71)"/><circle class="cls-32" cx="187.08" cy="373.46" r="1.71" transform="translate(-187.31 558.67) rotate(-89.71)"/><circle class="cls-32" cx="163.82" cy="351.01" r="1.53" transform="matrix(0.01, -1, 1, 0.01, -188.01, 513.07)"/><circle class="cls-32" cx="177.56" cy="352.9" r="1.15" transform="translate(-176.22 528.69) rotate(-89.71)"/><ellipse class="cls-32" cx="211.98" cy="356.06" rx="1.15" ry="1.19" transform="matrix(0.01, -1, 1, 0.01, -145.14, 566.26)"/><ellipse class="cls-32" cx="187.39" cy="356.39" rx="1.02" ry="1.06" transform="matrix(0.01, -1, 1, 0.01, -169.93, 541.99)"/><ellipse class="cls-32" cx="197.49" cy="354" rx="0.77" ry="0.8" transform="translate(-157.49 549.72) rotate(-89.71)"/><ellipse class="cls-32" cx="149.42" cy="336.84" rx="0.77" ry="0.8" transform="matrix(0.01, -1, 1, 0.01, -188.16, 484.58)"/><ellipse class="cls-32" cx="227.14" cy="325.99" rx="1.15" ry="1.19" transform="translate(-99.97 551.5) rotate(-89.71)"/><ellipse class="cls-32" cx="198.2" cy="328.4" rx="1.02" ry="1.06" transform="translate(-131.19 524.96) rotate(-89.71)"/><ellipse class="cls-32" cx="208.28" cy="332.58" rx="0.77" ry="0.8" transform="translate(-125.34 539.19) rotate(-89.71)"/><ellipse class="cls-32" cx="155.17" cy="325.83" rx="1.19" ry="1.15" transform="translate(-171.43 479.36) rotate(-89.71)"/><ellipse class="cls-32" cx="152.75" cy="296.89" rx="1.06" ry="1.02" transform="translate(-144.9 448.15) rotate(-89.71)"/><ellipse class="cls-32" cx="148.57" cy="306.96" rx="0.8" ry="0.77" transform="translate(-159.13 453.99) rotate(-89.71)"/><ellipse class="cls-32" cx="152.9" cy="365.92" rx="1.02" ry="1.06" transform="matrix(0.01, -1, 1, 0.01, -213.78, 516.98)"/><circle class="cls-32" cx="274.8" cy="471.22" r="2.63" transform="translate(-197.79 743.66) rotate(-89.71)"/><circle class="cls-32" cx="248.84" cy="419.22" r="2.34" transform="translate(-171.62 665.95) rotate(-89.71)"/><circle class="cls-32" cx="343.04" cy="417.63" r="2.63" transform="translate(-194.57 362.2) rotate(-44.71)"/><circle class="cls-32" cx="283.08" cy="408.79" r="1.71" transform="translate(-127.13 689.82) rotate(-89.71)"/><circle class="cls-32" cx="306.34" cy="431.25" r="1.53" transform="matrix(0.01, -1, 1, 0.01, -126.43, 735.43)"/><circle class="cls-32" cx="292.6" cy="429.36" r="1.15" transform="translate(-138.22 719.8) rotate(-89.71)"/><ellipse class="cls-32" cx="258.18" cy="426.19" rx="1.15" ry="1.19" transform="translate(-169.3 682.24) rotate(-89.71)"/><ellipse class="cls-32" cx="282.77" cy="425.87" rx="1.02" ry="1.06" transform="translate(-144.51 706.51) rotate(-89.71)"/><ellipse class="cls-32" cx="272.67" cy="428.25" rx="0.77" ry="0.8" transform="translate(-156.94 698.77) rotate(-89.71)"/><ellipse class="cls-32" cx="320.74" cy="445.41" rx="0.77" ry="0.8" transform="translate(-126.28 763.91) rotate(-89.71)"/><ellipse class="cls-32" cx="243.02" cy="456.27" rx="1.15" ry="1.19" transform="translate(-214.46 697) rotate(-89.71)"/><ellipse class="cls-32" cx="271.96" cy="453.85" rx="1.02" ry="1.06" transform="translate(-183.25 723.53) rotate(-89.71)"/><ellipse class="cls-32" cx="261.88" cy="449.67" rx="0.77" ry="0.8" transform="translate(-189.09 709.3) rotate(-89.71)"/><ellipse class="cls-32" cx="314.99" cy="456.43" rx="1.19" ry="1.15" transform="translate(-143 769.13) rotate(-89.71)"/><ellipse class="cls-32" cx="317.41" cy="485.37" rx="1.06" ry="1.02" transform="translate(-169.54 800.34) rotate(-89.71)"/><ellipse class="cls-32" cx="321.59" cy="475.29" rx="0.8" ry="0.77" transform="translate(-155.31 794.5) rotate(-89.71)"/><ellipse class="cls-32" cx="317.26" cy="416.34" rx="1.02" ry="1.06" transform="matrix(0.01, -1, 1, 0.01, -100.66, 731.51)"/><circle class="cls-32" cx="313.04" cy="334.77" r="2.63" transform="translate(-23.3 646.13) rotate(-89.71)"/><circle class="cls-32" cx="339" cy="386.78" r="2.34" transform="translate(-49.47 723.84) rotate(-89.71)"/><circle class="cls-32" cx="244.8" cy="388.36" r="2.63" transform="translate(-202.4 284.61) rotate(-44.71)"/><circle class="cls-32" cx="304.76" cy="397.2" r="1.71" transform="translate(-93.96 699.97) rotate(-89.71)"/><circle class="cls-32" cx="281.5" cy="374.75" r="1.53" transform="matrix(0.01, -1, 1, 0.01, -94.65, 654.37)"/><circle class="cls-32" cx="295.25" cy="376.63" r="1.15" transform="translate(-82.86 669.99) rotate(-89.71)"/><ellipse class="cls-32" cx="329.66" cy="379.8" rx="1.15" ry="1.19" transform="translate(-51.78 707.55) rotate(-89.71)"/><ellipse class="cls-32" cx="305.07" cy="380.12" rx="1.02" ry="1.06" transform="translate(-76.58 683.29) rotate(-89.71)"/><ellipse class="cls-32" cx="315.17" cy="377.74" rx="0.77" ry="0.8" transform="translate(-64.14 691.02) rotate(-89.71)"/><ellipse class="cls-32" cx="267.11" cy="360.58" rx="0.77" ry="0.8" transform="translate(-94.81 625.88) rotate(-89.71)"/><ellipse class="cls-32" cx="344.83" cy="349.72" rx="1.15" ry="1.19" transform="translate(-6.62 692.8) rotate(-89.71)"/><ellipse class="cls-32" cx="315.89" cy="352.14" rx="1.02" ry="1.06" transform="translate(-37.83 666.26) rotate(-89.71)"/><ellipse class="cls-32" cx="325.96" cy="356.32" rx="0.77" ry="0.8" transform="translate(-31.99 680.49) rotate(-89.71)"/><ellipse class="cls-32" cx="272.85" cy="349.57" rx="1.19" ry="1.15" transform="translate(-78.08 620.66) rotate(-89.71)"/><ellipse class="cls-32" cx="270.43" cy="320.63" rx="1.06" ry="1.02" transform="translate(-51.54 589.45) rotate(-89.71)"/><ellipse class="cls-32" cx="266.25" cy="330.7" rx="0.8" ry="0.77" transform="translate(-65.77 595.29) rotate(-89.71)"/><ellipse class="cls-32" cx="270.58" cy="389.66" rx="1.02" ry="1.06" transform="translate(-120.43 658.28) rotate(-89.71)"/><circle class="cls-32" cx="29.47" cy="258.57" r="2.63" transform="translate(-229.25 286.74) rotate(-89.71)"/><circle class="cls-32" cx="97.71" cy="204.98" r="2.63" transform="translate(-115.94 128.06) rotate(-44.71)"/><circle class="cls-32" cx="37.74" cy="196.14" r="1.71" transform="translate(-158.59 232.9) rotate(-89.71)"/><circle class="cls-32" cx="61" cy="218.6" r="1.53" transform="translate(-157.89 278.51) rotate(-89.71)"/><circle class="cls-32" cx="47.26" cy="216.71" r="1.15" transform="translate(-169.68 262.88) rotate(-89.71)"/><ellipse class="cls-32" cx="12.84" cy="213.54" rx="1.15" ry="1.19" transform="translate(-200.76 225.32) rotate(-89.71)"/><ellipse class="cls-32" cx="37.43" cy="213.22" rx="1.02" ry="1.06" transform="translate(-175.97 249.58) rotate(-89.71)"/><ellipse class="cls-32" cx="27.33" cy="215.6" rx="0.77" ry="0.8" transform="translate(-188.41 241.85) rotate(-89.71)"/><ellipse class="cls-32" cx="75.4" cy="232.76" rx="0.77" ry="0.8" transform="translate(-157.74 306.99) rotate(-89.71)"/><ellipse class="cls-32" cx="26.62" cy="241.2" rx="1.02" ry="1.06" transform="matrix(0.01, -1, 1, 0.01, -214.71, 266.61)"/><ellipse class="cls-32" cx="16.55" cy="237.02" rx="0.77" ry="0.8" transform="translate(-220.56 252.38) rotate(-89.71)"/><ellipse class="cls-32" cx="69.65" cy="243.78" rx="1.19" ry="1.15" transform="translate(-174.47 312.21) rotate(-89.71)"/><ellipse class="cls-32" cx="72.07" cy="272.72" rx="1.06" ry="1.02" transform="translate(-201 343.42) rotate(-89.71)"/><ellipse class="cls-32" cx="76.25" cy="262.64" rx="0.8" ry="0.77" transform="translate(-186.77 337.58) rotate(-89.71)"/><ellipse class="cls-32" cx="71.92" cy="203.69" rx="1.02" ry="1.06" transform="translate(-132.12 274.59) rotate(-89.71)"/><circle class="cls-32" cx="67.7" cy="122.12" r="2.63" transform="translate(-54.76 189.21) rotate(-89.71)"/><circle class="cls-32" cx="93.67" cy="174.13" r="2.34" transform="translate(-80.93 266.92) rotate(-89.71)"/><circle class="cls-32" cx="59.43" cy="184.55" r="1.71" transform="translate(-125.42 243.05) rotate(-89.71)"/><circle class="cls-32" cx="36.16" cy="162.1" r="1.53" transform="translate(-126.11 197.44) rotate(-89.71)"/><circle class="cls-32" cx="49.91" cy="163.98" r="1.15" transform="matrix(0.01, -1, 1, 0.01, -114.32, 213.07)"/><ellipse class="cls-32" cx="84.32" cy="167.15" rx="1.15" ry="1.19" transform="translate(-83.25 250.63) rotate(-89.71)"/><ellipse class="cls-32" cx="59.73" cy="167.47" rx="1.02" ry="1.06" transform="translate(-108.04 226.37) rotate(-89.71)"/><ellipse class="cls-32" cx="69.84" cy="165.09" rx="0.77" ry="0.8" transform="translate(-95.6 234.1) rotate(-89.71)"/><ellipse class="cls-32" cx="21.77" cy="147.93" rx="0.77" ry="0.8" transform="translate(-126.27 168.96) rotate(-89.71)"/><ellipse class="cls-32" cx="99.49" cy="137.07" rx="1.15" ry="1.19" transform="translate(-38.08 235.87) rotate(-89.71)"/><ellipse class="cls-32" cx="70.55" cy="139.49" rx="1.02" ry="1.06" transform="translate(-69.29 209.34) rotate(-89.71)"/><ellipse class="cls-32" cx="80.62" cy="143.67" rx="0.77" ry="0.8" transform="translate(-63.45 223.57) rotate(-89.71)"/><ellipse class="cls-32" cx="27.51" cy="136.92" rx="1.19" ry="1.15" transform="translate(-109.54 163.74) rotate(-89.71)"/><ellipse class="cls-32" cx="25.1" cy="107.98" rx="1.06" ry="1.02" transform="translate(-83 132.53) rotate(-89.71)"/><ellipse class="cls-32" cx="20.92" cy="118.05" rx="0.8" ry="0.77" transform="translate(-97.24 138.37) rotate(-89.71)"/><ellipse class="cls-32" cx="25.24" cy="177.01" rx="1.02" ry="1.06" transform="translate(-151.89 201.36) rotate(-89.71)"/><circle class="cls-32" cx="147.15" cy="282.31" r="2.63" transform="translate(-135.89 428.04) rotate(-89.71)"/><circle class="cls-32" cx="121.18" cy="230.3" r="2.34" transform="matrix(0.01, -1, 1, 0.01, -109.73, 350.33)"/><circle class="cls-32" cx="215.39" cy="228.72" r="2.63" transform="translate(-98.59 217.72) rotate(-44.71)"/><circle class="cls-32" cx="155.42" cy="219.88" r="1.71" transform="translate(-65.23 374.2) rotate(-89.71)"/><circle class="cls-32" cx="178.69" cy="242.33" r="1.53" transform="translate(-64.54 419.8) rotate(-89.71)"/><circle class="cls-32" cx="164.94" cy="240.45" r="1.15" transform="translate(-76.33 404.18) rotate(-89.71)"/><ellipse class="cls-32" cx="130.52" cy="237.28" rx="1.15" ry="1.19" transform="matrix(0.01, -1, 1, 0.01, -107.41, 366.61)"/><ellipse class="cls-32" cx="155.12" cy="236.96" rx="1.02" ry="1.06" transform="matrix(0.01, -1, 1, 0.01, -82.61, 390.88)"/><ellipse class="cls-32" cx="145.01" cy="239.34" rx="0.77" ry="0.8" transform="translate(-95.05 383.15) rotate(-89.71)"/><ellipse class="cls-32" cx="193.08" cy="256.5" rx="0.77" ry="0.8" transform="translate(-64.38 448.29) rotate(-89.71)"/><ellipse class="cls-32" cx="115.36" cy="267.35" rx="1.15" ry="1.19" transform="translate(-152.57 381.37) rotate(-89.71)"/><ellipse class="cls-32" cx="144.3" cy="264.94" rx="1.02" ry="1.06" transform="translate(-121.36 407.91) rotate(-89.71)"/><ellipse class="cls-32" cx="134.23" cy="260.76" rx="0.77" ry="0.8" transform="translate(-127.2 393.68) rotate(-89.71)"/><ellipse class="cls-32" cx="187.34" cy="267.51" rx="1.19" ry="1.15" transform="matrix(0.01, -1, 1, 0.01, -81.11, 453.51)"/><ellipse class="cls-32" cx="189.75" cy="296.45" rx="1.06" ry="1.02" transform="matrix(0.01, -1, 1, 0.01, -107.65, 484.72)"/><ellipse class="cls-32" cx="193.93" cy="286.38" rx="0.8" ry="0.77" transform="translate(-93.42 478.88) rotate(-89.71)"/><ellipse class="cls-32" cx="189.6" cy="227.42" rx="1.02" ry="1.06" transform="matrix(0.01, -1, 1, 0.01, -38.76, 415.89)"/><circle class="cls-32" cx="185.38" cy="145.86" r="2.63" transform="translate(38.6 330.51) rotate(-89.71)"/><circle class="cls-32" cx="211.35" cy="197.86" r="2.34" transform="matrix(0.01, -1, 1, 0.01, 12.43, 408.22)"/><circle class="cls-32" cx="117.14" cy="199.45" r="2.63" transform="translate(-106.43 140.13) rotate(-44.71)"/><circle class="cls-32" cx="177.11" cy="208.29" r="1.71" transform="translate(-32.06 384.35) rotate(-89.71)"/><circle class="cls-32" cx="153.84" cy="185.83" r="1.53" transform="translate(-32.76 338.74) rotate(-89.71)"/><circle class="cls-32" cx="167.59" cy="187.72" r="1.15" transform="translate(-20.97 354.37) rotate(-89.71)"/><ellipse class="cls-32" cx="202" cy="190.89" rx="1.15" ry="1.19" transform="translate(10.11 391.93) rotate(-89.71)"/><ellipse class="cls-32" cx="177.41" cy="191.21" rx="1.02" ry="1.06" transform="translate(-14.68 367.66) rotate(-89.71)"/><ellipse class="cls-32" cx="187.52" cy="188.83" rx="0.77" ry="0.8" transform="translate(-2.25 375.4) rotate(-89.71)"/><ellipse class="cls-32" cx="139.45" cy="171.67" rx="0.77" ry="0.8" transform="matrix(0.01, -1, 1, 0.01, -32.91, 310.26)"/><ellipse class="cls-32" cx="217.17" cy="160.81" rx="1.15" ry="1.19" transform="matrix(0.01, -1, 1, 0.01, 55.27, 377.17)"/><ellipse class="cls-32" cx="188.23" cy="163.23" rx="1.02" ry="1.06" transform="matrix(0.01, -1, 1, 0.01, 24.06, 350.64)"/><ellipse class="cls-32" cx="198.3" cy="167.41" rx="0.77" ry="0.8" transform="translate(29.9 364.87) rotate(-89.71)"/><ellipse class="cls-32" cx="145.19" cy="160.65" rx="1.19" ry="1.15" transform="translate(-16.19 305.04) rotate(-89.71)"/><ellipse class="cls-32" cx="142.78" cy="131.71" rx="1.06" ry="1.02" transform="matrix(0.01, -1, 1, 0.01, 10.35, 273.83)"/><ellipse class="cls-32" cx="138.6" cy="141.79" rx="0.8" ry="0.77" transform="translate(-3.88 279.67) rotate(-89.71)"/><ellipse class="cls-32" cx="142.92" cy="200.74" rx="1.02" ry="1.06" transform="matrix(0.01, -1, 1, 0.01, -58.53, 342.66)"/><circle class="cls-32" cx="20.59" cy="79" r="2.63" transform="translate(-58.51 99.19) rotate(-89.71)"/><circle class="cls-32" cx="88.83" cy="25.41" r="2.63" transform="translate(7.83 69.85) rotate(-44.71)"/><circle class="cls-32" cx="28.86" cy="16.57" r="1.71" transform="translate(12.15 45.35) rotate(-89.71)"/><circle class="cls-32" cx="52.13" cy="39.02" r="1.53" transform="translate(12.85 90.96) rotate(-89.71)"/><circle class="cls-32" cx="38.38" cy="37.14" r="1.15" transform="translate(1.06 75.33) rotate(-89.71)"/><ellipse class="cls-32" cx="28.56" cy="33.64" rx="1.02" ry="1.06" transform="translate(-5.23 62.04) rotate(-89.71)"/><ellipse class="cls-32" cx="18.45" cy="36.03" rx="0.77" ry="0.8" transform="translate(-17.67 54.3) rotate(-89.71)"/><ellipse class="cls-32" cx="66.52" cy="53.19" rx="0.77" ry="0.8" transform="translate(13 119.44) rotate(-89.71)"/><ellipse class="cls-32" cx="17.74" cy="61.63" rx="1.02" ry="1.06" transform="translate(-43.97 79.06) rotate(-89.71)"/><ellipse class="cls-32" cx="7.67" cy="57.45" rx="0.77" ry="0.8" transform="translate(-49.82 64.83) rotate(-89.71)"/><ellipse class="cls-32" cx="60.78" cy="64.2" rx="1.19" ry="1.15" transform="matrix(0.01, -1, 1, 0.01, -3.73, 124.66)"/><ellipse class="cls-32" cx="63.2" cy="93.14" rx="1.06" ry="1.02" transform="translate(-30.26 155.87) rotate(-89.71)"/><ellipse class="cls-32" cx="67.38" cy="83.07" rx="0.8" ry="0.77" transform="translate(-16.03 150.03) rotate(-89.71)"/><ellipse class="cls-32" cx="63.05" cy="24.11" rx="1.02" ry="1.06" transform="translate(38.62 87.04) rotate(-89.71)"/><circle class="cls-32" cx="50.55" cy="4.98" r="1.71" transform="translate(45.32 55.5) rotate(-89.71)"/><path class="cls-32" d="M139.75,105c.64,0,1.16.07,1.16.16s-.53.16-1.17.16-1.16-.07-1.16-.16S139.11,105,139.75,105Z"/><circle class="cls-32" cx="112.31" cy="50.73" r="2.34" transform="translate(61.02 162.78) rotate(-89.71)"/><circle class="cls-32" cx="206.51" cy="49.15" r="2.63" transform="translate(25.18 159.51) rotate(-44.71)"/><circle class="cls-32" cx="146.55" cy="40.31" r="1.71" transform="translate(105.51 186.65) rotate(-89.71)"/><circle class="cls-32" cx="169.81" cy="62.76" r="1.53" transform="matrix(0.01, -1, 1, 0.01, 106.2, 232.25)"/><circle class="cls-32" cx="156.06" cy="60.87" r="1.15" transform="translate(94.41 216.63) rotate(-89.71)"/><ellipse class="cls-32" cx="121.65" cy="57.71" rx="1.15" ry="1.19" transform="matrix(0.01, -1, 1, 0.01, 63.33, 179.07)"/><ellipse class="cls-32" cx="146.24" cy="57.38" rx="1.02" ry="1.06" transform="translate(88.13 203.33) rotate(-89.71)"/><ellipse class="cls-32" cx="136.14" cy="59.77" rx="0.77" ry="0.8" transform="translate(75.69 195.6) rotate(-89.71)"/><ellipse class="cls-32" cx="184.2" cy="76.93" rx="0.77" ry="0.8" transform="translate(106.36 260.74) rotate(-89.71)"/><ellipse class="cls-32" cx="106.48" cy="87.78" rx="1.15" ry="1.19" transform="translate(18.17 193.82) rotate(-89.71)"/><ellipse class="cls-32" cx="135.42" cy="85.37" rx="1.02" ry="1.06" transform="translate(49.38 220.36) rotate(-89.71)"/><ellipse class="cls-32" cx="125.35" cy="81.19" rx="0.77" ry="0.8" transform="translate(43.54 206.13) rotate(-89.71)"/><ellipse class="cls-32" cx="178.46" cy="87.94" rx="1.19" ry="1.15" transform="translate(89.63 265.96) rotate(-89.71)"/><ellipse class="cls-32" cx="180.88" cy="116.88" rx="1.06" ry="1.02" transform="translate(63.09 297.17) rotate(-89.71)"/><ellipse class="cls-32" cx="185.06" cy="106.81" rx="0.8" ry="0.77" transform="translate(77.32 291.33) rotate(-89.71)"/><ellipse class="cls-32" cx="180.73" cy="47.85" rx="1.02" ry="1.06" transform="matrix(0.01, -1, 1, 0.01, 131.98, 228.34)"/><circle class="cls-32" cx="202.47" cy="18.29" r="2.34" transform="translate(183.17 220.67) rotate(-89.71)"/><circle class="cls-32" cx="108.27" cy="19.87" r="2.63" transform="translate(17.35 81.92) rotate(-44.71)"/><circle class="cls-32" cx="168.23" cy="28.71" r="1.71" transform="translate(138.68 196.8) rotate(-89.71)"/><circle class="cls-32" cx="144.97" cy="6.26" r="1.53" transform="translate(137.98 151.19) rotate(-89.71)"/><circle class="cls-32" cx="158.71" cy="8.15" r="1.15" transform="translate(149.77 166.82) rotate(-89.71)"/><ellipse class="cls-32" cx="193.13" cy="11.31" rx="1.15" ry="1.19" transform="translate(180.85 204.38) rotate(-89.71)"/><ellipse class="cls-32" cx="168.54" cy="11.64" rx="1.02" ry="1.06" transform="translate(156.06 180.11) rotate(-89.71)"/><ellipse class="cls-32" cx="178.64" cy="9.25" rx="0.77" ry="0.8" transform="translate(168.49 187.85) rotate(-89.71)"/><ellipse class="cls-32" cx="134.05" cy="21.17" rx="1.02" ry="1.06" transform="matrix(0.01, -1, 1, 0.01, 112.21, 155.11)"/><circle class="cls-32" cx="65.99" cy="462.65" r="2.63" transform="translate(-396.98 526.33) rotate(-89.71)"/><circle class="cls-32" cx="91.96" cy="514.66" r="2.34" transform="translate(-423.15 604.04) rotate(-89.71)"/><circle class="cls-32" cx="34.46" cy="502.63" r="1.53" transform="matrix(0.01, -1, 1, 0.01, -468.34, 534.57)"/><circle class="cls-32" cx="48.2" cy="504.51" r="1.15" transform="translate(-456.55 550.19) rotate(-89.71)"/><ellipse class="cls-32" cx="82.62" cy="507.68" rx="1.15" ry="1.19" transform="translate(-425.47 587.76) rotate(-89.71)"/><ellipse class="cls-32" cx="58.03" cy="508" rx="1.02" ry="1.06" transform="translate(-450.26 563.49) rotate(-89.71)"/><ellipse class="cls-32" cx="68.13" cy="505.62" rx="0.77" ry="0.8" transform="translate(-437.82 571.22) rotate(-89.71)"/><ellipse class="cls-32" cx="20.06" cy="488.46" rx="0.77" ry="0.8" transform="translate(-468.49 506.08) rotate(-89.71)"/><ellipse class="cls-32" cx="97.78" cy="477.6" rx="1.15" ry="1.19" transform="translate(-380.3 573) rotate(-89.71)"/><ellipse class="cls-32" cx="68.84" cy="480.02" rx="1.02" ry="1.06" transform="translate(-411.52 546.46) rotate(-89.71)"/><ellipse class="cls-32" cx="78.92" cy="484.2" rx="0.77" ry="0.8" transform="translate(-405.67 560.69) rotate(-89.71)"/><ellipse class="cls-32" cx="25.81" cy="477.45" rx="1.19" ry="1.15" transform="translate(-451.76 500.86) rotate(-89.71)"/><ellipse class="cls-32" cx="23.39" cy="448.51" rx="1.06" ry="1.02" transform="translate(-425.23 469.65) rotate(-89.71)"/><ellipse class="cls-32" cx="19.21" cy="458.58" rx="0.8" ry="0.77" transform="translate(-439.46 475.49) rotate(-89.71)"/><ellipse class="cls-32" cx="23.54" cy="517.54" rx="1.02" ry="1.06" transform="translate(-494.11 538.48) rotate(-89.71)"/><circle class="cls-32" cx="183.68" cy="486.39" r="2.63" transform="translate(-303.63 667.63) rotate(-89.71)"/><ellipse class="cls-32" cx="137.74" cy="512.2" rx="0.77" ry="0.8" transform="translate(-375.14 647.38) rotate(-89.71)"/><ellipse class="cls-32" cx="215.46" cy="501.34" rx="1.15" ry="1.19" transform="matrix(0.01, -1, 1, 0.01, -286.95, 714.29)"/><ellipse class="cls-32" cx="186.52" cy="503.76" rx="1.02" ry="1.06" transform="translate(-318.16 687.76) rotate(-89.71)"/><ellipse class="cls-32" cx="196.6" cy="507.94" rx="0.77" ry="0.8" transform="translate(-312.32 701.99) rotate(-89.71)"/><ellipse class="cls-32" cx="143.49" cy="501.18" rx="1.19" ry="1.15" transform="translate(-358.41 642.16) rotate(-89.71)"/><ellipse class="cls-32" cx="141.07" cy="472.24" rx="1.06" ry="1.02" transform="translate(-331.87 610.95) rotate(-89.71)"/><ellipse class="cls-32" cx="136.89" cy="482.32" rx="0.8" ry="0.77" transform="translate(-346.1 616.79) rotate(-89.71)"/><circle class="cls-32" cx="18.89" cy="419.53" r="2.63" transform="translate(-400.73 436.31) rotate(-89.71)"/><circle class="cls-32" cx="87.13" cy="345.94" r="2.63" transform="translate(-218.18 161.4) rotate(-44.71)"/><circle class="cls-32" cx="27.16" cy="337.1" r="1.71" transform="translate(-310.07 362.57) rotate(-89.71)"/><circle class="cls-32" cx="50.43" cy="379.55" r="1.53" transform="matrix(0.01, -1, 1, 0.01, -329.38, 428.08)"/><circle class="cls-32" cx="36.68" cy="377.67" r="1.15" transform="translate(-341.17 412.45) rotate(-89.71)"/><ellipse class="cls-32" cx="26.85" cy="374.18" rx="1.02" ry="1.06" transform="translate(-347.45 399.16) rotate(-89.71)"/><ellipse class="cls-32" cx="16.75" cy="376.56" rx="0.77" ry="0.8" transform="translate(-359.89 391.42) rotate(-89.71)"/><ellipse class="cls-32" cx="64.82" cy="393.72" rx="0.77" ry="0.8" transform="translate(-329.22 456.57) rotate(-89.71)"/><ellipse class="cls-32" cx="16.04" cy="402.16" rx="1.02" ry="1.06" transform="matrix(0.01, -1, 1, 0.01, -386.2, 416.18)"/><ellipse class="cls-32" cx="59.08" cy="404.73" rx="1.19" ry="1.15" transform="matrix(0.01, -1, 1, 0.01, -345.95, 461.78)"/><ellipse class="cls-32" cx="61.49" cy="433.67" rx="1.06" ry="1.02" transform="translate(-372.48 492.99) rotate(-89.71)"/><ellipse class="cls-32" cx="65.67" cy="423.6" rx="0.8" ry="0.77" transform="translate(-358.25 487.15) rotate(-89.71)"/><ellipse class="cls-32" cx="61.34" cy="344.64" rx="1.02" ry="1.06" transform="translate(-283.6 404.26) rotate(-89.71)"/><circle class="cls-32" cx="57.12" cy="283.08" r="2.63" transform="translate(-226.24 338.78) rotate(-89.71)"/><circle class="cls-32" cx="83.09" cy="315.08" r="2.34" transform="translate(-232.41 396.59) rotate(-89.71)"/><circle class="cls-32" cx="48.85" cy="325.51" r="1.71" transform="translate(-276.9 372.72) rotate(-89.71)"/><circle class="cls-32" cx="25.58" cy="323.05" r="1.53" transform="matrix(0.01, -1, 1, 0.01, -297.59, 347.02)"/><circle class="cls-32" cx="39.33" cy="324.94" r="1.15" transform="translate(-285.8 362.64) rotate(-89.71)"/><path class="cls-32" d="M73.75,327c.66,0,1.19-19.48,1.19-18.85a1.19,1.19,0,0,1-2.38,0C72.56,307.47,73.09,327,73.75,327Z"/><path class="cls-32" d="M49.16,327.41c.59,0,1.06-19.54,1.06-19a1.06,1.06,0,0,1-2.12,0C48.09,307.86,48.57,327.4,49.16,327.41Z"/><ellipse class="cls-32" cx="59.26" cy="326.05" rx="0.77" ry="0.8" transform="translate(-267.08 383.67) rotate(-89.71)"/><ellipse class="cls-32" cx="11.19" cy="308.89" rx="0.77" ry="0.8" transform="translate(-297.75 318.53) rotate(-89.71)"/><ellipse class="cls-32" cx="88.91" cy="298.03" rx="1.15" ry="1.19" transform="translate(-209.56 385.45) rotate(-89.71)"/><ellipse class="cls-32" cx="59.97" cy="300.45" rx="1.02" ry="1.06" transform="translate(-240.78 358.91) rotate(-89.71)"/><ellipse class="cls-32" cx="70.04" cy="304.63" rx="0.77" ry="0.8" transform="translate(-234.93 373.14) rotate(-89.71)"/><ellipse class="cls-32" cx="16.93" cy="297.87" rx="1.19" ry="1.15" transform="translate(-281.02 313.31) rotate(-89.71)"/><ellipse class="cls-32" cx="14.52" cy="268.93" rx="1.06" ry="1.02" transform="translate(-254.49 282.1) rotate(-89.71)"/><ellipse class="cls-32" cx="10.34" cy="279.01" rx="0.8" ry="0.77" transform="translate(-268.72 287.94) rotate(-89.71)"/><ellipse class="cls-32" cx="14.66" cy="317.96" rx="1.02" ry="1.06" transform="matrix(0.01, -1, 1, 0.01, -303.37, 331.03)"/><circle class="cls-32" cx="136.57" cy="443.26" r="2.63" transform="translate(-307.37 577.61) rotate(-89.71)"/><circle class="cls-32" cx="110.6" cy="391.26" r="2.34" transform="translate(-281.21 499.9) rotate(-89.71)"/><circle class="cls-32" cx="204.81" cy="389.68" r="2.63" transform="translate(-214.9 256.85) rotate(-44.71)"/><circle class="cls-32" cx="144.84" cy="380.84" r="1.71" transform="translate(-236.72 523.77) rotate(-89.71)"/><circle class="cls-32" cx="168.11" cy="403.29" r="1.53" transform="matrix(0.01, -1, 1, 0.01, -236.02, 569.38)"/><circle class="cls-32" cx="154.36" cy="401.4" r="1.15" transform="translate(-247.81 553.75) rotate(-89.71)"/><ellipse class="cls-32" cx="119.94" cy="398.24" rx="1.15" ry="1.19" transform="translate(-278.89 516.19) rotate(-89.71)"/><ellipse class="cls-32" cx="144.54" cy="397.91" rx="1.02" ry="1.06" transform="translate(-254.1 540.46) rotate(-89.71)"/><ellipse class="cls-32" cx="134.43" cy="400.3" rx="0.77" ry="0.8" transform="translate(-266.53 532.72) rotate(-89.71)"/><ellipse class="cls-32" cx="182.5" cy="417.46" rx="0.77" ry="0.8" transform="matrix(0.01, -1, 1, 0.01, -235.86, 597.86)"/><ellipse class="cls-32" cx="104.78" cy="428.31" rx="1.15" ry="1.19" transform="translate(-324.05 530.95) rotate(-89.71)"/><ellipse class="cls-32" cx="133.72" cy="425.9" rx="1.02" ry="1.06" transform="translate(-292.84 557.48) rotate(-89.71)"/><ellipse class="cls-32" cx="123.65" cy="421.72" rx="0.77" ry="0.8" transform="translate(-298.68 543.25) rotate(-89.71)"/><ellipse class="cls-32" cx="176.76" cy="428.47" rx="1.19" ry="1.15" transform="translate(-252.59 603.08) rotate(-89.71)"/><ellipse class="cls-32" cx="179.17" cy="457.41" rx="1.06" ry="1.02" transform="translate(-279.13 634.29) rotate(-89.71)"/><ellipse class="cls-32" cx="183.35" cy="447.34" rx="0.8" ry="0.77" transform="translate(-264.9 628.45) rotate(-89.71)"/><ellipse class="cls-32" cx="179.02" cy="388.38" rx="1.02" ry="1.06" transform="translate(-210.25 565.46) rotate(-89.71)"/><circle class="cls-32" cx="174.8" cy="306.82" r="2.63" transform="translate(-132.89 480.08) rotate(-89.71)"/><circle class="cls-32" cx="200.77" cy="358.82" r="2.34" transform="translate(-159.05 557.79) rotate(-89.71)"/><circle class="cls-32" cx="106.56" cy="340.4" r="2.63" transform="translate(-208.66 173.47) rotate(-44.71)"/><circle class="cls-32" cx="166.53" cy="369.24" r="1.71" transform="translate(-203.55 533.92) rotate(-89.71)"/><circle class="cls-32" cx="143.26" cy="326.79" r="1.53" transform="translate(-184.24 468.41) rotate(-89.71)"/><circle class="cls-32" cx="157.01" cy="348.68" r="1.15" transform="matrix(0.01, -1, 1, 0.01, -192.45, 503.94)"/><ellipse class="cls-32" cx="191.42" cy="351.84" rx="1.15" ry="1.19" transform="translate(-161.37 541.5) rotate(-89.71)"/><ellipse class="cls-32" cx="166.83" cy="352.17" rx="1.02" ry="1.06" transform="translate(-186.17 517.24) rotate(-89.71)"/><ellipse class="cls-32" cx="176.94" cy="349.78" rx="0.77" ry="0.8" transform="translate(-173.73 524.97) rotate(-89.71)"/><ellipse class="cls-32" cx="128.87" cy="312.62" rx="0.77" ry="0.8" transform="translate(-184.4 439.93) rotate(-89.71)"/><ellipse class="cls-32" cx="206.59" cy="321.77" rx="1.15" ry="1.19" transform="translate(-116.21 526.74) rotate(-89.71)"/><ellipse class="cls-32" cx="177.65" cy="324.18" rx="1.02" ry="1.06" transform="matrix(0.01, -1, 1, 0.01, -147.42, 500.21)"/><ellipse class="cls-32" cx="187.72" cy="328.36" rx="0.77" ry="0.8" transform="translate(-141.58 514.44) rotate(-89.71)"/><ellipse class="cls-32" cx="134.61" cy="321.61" rx="1.19" ry="1.15" transform="translate(-187.67 454.61) rotate(-89.71)"/><ellipse class="cls-32" cx="132.2" cy="292.67" rx="1.06" ry="1.02" transform="translate(-161.13 423.4) rotate(-89.71)"/><ellipse class="cls-32" cx="130.91" cy="298.27" rx="5.28" ry="2.1" transform="translate(-168.02 427.69) rotate(-89.71)"/><ellipse class="cls-32" cx="132.34" cy="341.7" rx="1.02" ry="1.06" transform="translate(-210.01 472.33) rotate(-89.71)"/></g><g class="cls-33"><circle class="cls-32" cx="257.35" cy="490.51" r="2.17"/><circle class="cls-34" cx="232.98" cy="474.32" r="2.17"/><circle class="cls-35" cx="204.67" cy="391.75" r="2.17"/><circle class="cls-36" cx="118.48" cy="386.12" r="2.17"/><circle class="cls-35" cx="311.28" cy="285.13" r="2.17"/><circle class="cls-36" cx="284.12" cy="508.89" r="2.6"/><circle class="cls-35" cx="182.48" cy="342.34" r="2.6"/><circle class="cls-35" cx="253.87" cy="369.5" r="2.17"/><circle class="cls-35" cx="231.19" cy="200.74" r="2.17"/><circle class="cls-36" cx="145.01" cy="195.11" r="2.17"/><circle class="cls-36" cx="289.09" cy="235.72" r="2.6"/><circle class="cls-32" cx="337.81" cy="94.12" r="2.17"/><circle class="cls-36" cx="118.98" cy="277.99" r="2.17"/></g><g class="cls-31"><ellipse class="cls-32" cx="514.19" cy="241.83" rx="1.22" ry="1.17"/><circle class="cls-32" cx="515.67" cy="172.5" r="2.69" transform="translate(29.06 415.15) rotate(-45)"/><ellipse class="cls-32" cx="538.3" cy="144.02" rx="0.82" ry="0.79"/><ellipse class="cls-32" cx="544.1" cy="132.75" rx="1.17" ry="1.22"/><ellipse class="cls-32" cx="541.49" cy="103.22" rx="1.04" ry="1.08"/><ellipse class="cls-32" cx="537.27" cy="113.52" rx="0.79" ry="0.82"/><circle class="cls-32" cx="536.74" cy="73.66" r="2.69"/><circle class="cls-32" cx="509.97" cy="20.7" r="2.39"/><circle class="cls-32" cx="606.13" cy="18.6" r="2.69" transform="translate(164.38 434.05) rotate(-45)"/><circle class="cls-32" cx="544.87" cy="9.88" r="1.75"/><circle class="cls-32" cx="568.74" cy="32.69" r="1.56"/><circle class="cls-32" cx="554.69" cy="30.83" r="1.18"/><ellipse class="cls-32" cx="519.54" cy="27.78" rx="1.22" ry="1.17"/><ellipse class="cls-32" cx="544.65" cy="27.32" rx="1.08" ry="1.04"/><ellipse class="cls-32" cx="534.34" cy="29.8" rx="0.82" ry="0.79"/><ellipse class="cls-32" cx="583.5" cy="47.08" rx="0.82" ry="0.79"/><ellipse class="cls-32" cx="504.21" cy="58.56" rx="1.22" ry="1.17"/><ellipse class="cls-32" cx="533.75" cy="55.94" rx="1.08" ry="1.04"/><ellipse class="cls-32" cx="523.44" cy="51.73" rx="0.82" ry="0.79"/><ellipse class="cls-32" cx="579.81" cy="17.41" rx="1.08" ry="1.04"/><circle class="cls-32" cx="630.23" cy="44.33" r="2.39"/><circle class="cls-32" cx="726.39" cy="42.23" r="2.69" transform="translate(182.89 526.01) rotate(-45)"/><circle class="cls-32" cx="665.13" cy="33.52" r="1.75"/><circle class="cls-32" cx="689" cy="56.32" r="1.56"/><circle class="cls-32" cx="674.95" cy="54.46" r="1.18"/><ellipse class="cls-32" cx="639.8" cy="51.41" rx="1.22" ry="1.17"/><ellipse class="cls-32" cx="664.91" cy="50.95" rx="1.08" ry="1.04"/><ellipse class="cls-32" cx="654.6" cy="53.43" rx="0.82" ry="0.79"/><ellipse class="cls-32" cx="703.76" cy="70.71" rx="0.82" ry="0.79"/><ellipse class="cls-32" cx="697.96" cy="81.98" rx="1.17" ry="1.22"/><ellipse class="cls-32" cx="700.57" cy="111.51" rx="1.04" ry="1.08"/><ellipse class="cls-32" cx="704.78" cy="101.21" rx="0.79" ry="0.82"/><ellipse class="cls-32" cx="700.07" cy="41.04" rx="1.08" ry="1.04"/><circle class="cls-32" cx="722.11" cy="10.75" r="2.39"/><circle class="cls-32" cx="625.95" cy="12.85" r="2.69" transform="translate(174.25 446.38) rotate(-45)"/><circle class="cls-32" cx="687.21" cy="21.57" r="1.75"/><circle class="cls-32" cx="663.34" cy="-1.23" r="1.56"/><circle class="cls-32" cx="677.39" cy="0.62" r="1.18"/><ellipse class="cls-32" cx="712.54" cy="3.68" rx="1.22" ry="1.17"/><ellipse class="cls-32" cx="687.43" cy="4.14" rx="1.08" ry="1.04"/><ellipse class="cls-32" cx="697.74" cy="1.65" rx="0.82" ry="0.79"/><ellipse class="cls-32" cx="652.27" cy="14.04" rx="1.08" ry="1.04"/><circle class="cls-32" cx="546.72" cy="604.59" r="2.69"/><ellipse class="cls-32" cx="590.29" cy="618.81" rx="1.04" ry="1.08"/><ellipse class="cls-32" cx="594.5" cy="608.51" rx="0.79" ry="0.82"/><circle class="cls-32" cx="666.98" cy="628.22" r="2.69"/><ellipse class="cls-32" cx="713.74" cy="601.64" rx="0.82" ry="0.79"/><ellipse class="cls-32" cx="634.45" cy="613.12" rx="1.22" ry="1.17"/><ellipse class="cls-32" cx="663.98" cy="610.5" rx="1.08" ry="1.04"/><ellipse class="cls-32" cx="653.68" cy="606.29" rx="0.82" ry="0.79"/><ellipse class="cls-32" cx="707.93" cy="612.91" rx="1.17" ry="1.22"/><ellipse class="cls-32" cx="710.55" cy="642.44" rx="1.04" ry="1.08"/><ellipse class="cls-32" cx="714.76" cy="632.14" rx="0.79" ry="0.82"/><circle class="cls-32" cx="405.46" cy="229.1" r="2.69"/><circle class="cls-32" cx="378.68" cy="176.15" r="2.39"/><circle class="cls-32" cx="474.85" cy="174.05" r="2.69" transform="translate(16.01 386.74) rotate(-45)"/><circle class="cls-32" cx="413.58" cy="165.33" r="1.75"/><circle class="cls-32" cx="437.45" cy="188.13" r="1.56"/><circle class="cls-32" cx="423.41" cy="186.28" r="1.18"/><ellipse class="cls-32" cx="388.26" cy="183.22" rx="1.22" ry="1.17"/><ellipse class="cls-32" cx="413.36" cy="182.76" rx="1.08" ry="1.04"/><ellipse class="cls-32" cx="403.05" cy="185.25" rx="0.82" ry="0.79"/><ellipse class="cls-32" cx="452.21" cy="202.52" rx="0.82" ry="0.79"/><ellipse class="cls-32" cx="372.93" cy="214" rx="1.22" ry="1.17"/><ellipse class="cls-32" cx="402.46" cy="211.39" rx="1.08" ry="1.04"/><ellipse class="cls-32" cx="392.16" cy="207.17" rx="0.82" ry="0.79"/><ellipse class="cls-32" cx="446.41" cy="213.79" rx="1.17" ry="1.22"/><ellipse class="cls-32" cx="449.02" cy="243.33" rx="1.04" ry="1.08"/><ellipse class="cls-32" cx="453.24" cy="233.02" rx="0.79" ry="0.82"/><ellipse class="cls-32" cx="448.52" cy="172.86" rx="1.08" ry="1.04"/><circle class="cls-32" cx="443.79" cy="89.61" r="2.69"/><circle class="cls-32" cx="470.56" cy="142.57" r="2.39"/><circle class="cls-32" cx="374.4" cy="144.66" r="2.69" transform="translate(7.37 307.11) rotate(-45)"/><circle class="cls-32" cx="435.66" cy="153.38" r="1.75"/><circle class="cls-32" cx="411.8" cy="130.58" r="1.56"/><circle class="cls-32" cx="425.84" cy="132.44" r="1.18"/><ellipse class="cls-32" cx="460.99" cy="135.49" rx="1.22" ry="1.17"/><ellipse class="cls-32" cx="435.89" cy="135.95" rx="1.08" ry="1.04"/><ellipse class="cls-32" cx="446.19" cy="133.46" rx="0.82" ry="0.79"/><ellipse class="cls-32" cx="397.03" cy="116.19" rx="0.82" ry="0.79"/><ellipse class="cls-32" cx="476.32" cy="104.71" rx="1.22" ry="1.17"/><ellipse class="cls-32" cx="446.79" cy="107.33" rx="1.08" ry="1.04"/><ellipse class="cls-32" cx="457.09" cy="111.54" rx="0.82" ry="0.79"/><ellipse class="cls-32" cx="402.84" cy="104.92" rx="1.17" ry="1.22"/><ellipse class="cls-32" cx="400.22" cy="75.39" rx="1.04" ry="1.08"/><ellipse class="cls-32" cx="396.01" cy="85.69" rx="0.79" ry="0.82"/><ellipse class="cls-32" cx="400.73" cy="145.86" rx="1.08" ry="1.04"/><circle class="cls-32" cx="498.94" cy="199.78" r="2.39"/><ellipse class="cls-32" cx="508.52" cy="206.85" rx="1.22" ry="1.17"/><ellipse class="cls-32" cx="493.19" cy="237.63" rx="1.22" ry="1.17"/><ellipse class="cls-32" cx="512.41" cy="230.8" rx="0.82" ry="0.79"/><circle class="cls-32" cx="494.66" cy="168.3" r="2.69" transform="translate(25.88 399.07) rotate(-45)"/><circle class="cls-32" cx="532.06" cy="154.21" r="1.56"/><ellipse class="cls-32" cx="517.29" cy="139.82" rx="0.82" ry="0.79"/><ellipse class="cls-32" cx="523.1" cy="128.55" rx="1.17" ry="1.22"/><ellipse class="cls-32" cx="520.48" cy="99.02" rx="1.04" ry="1.08"/><ellipse class="cls-32" cx="516.27" cy="109.32" rx="0.79" ry="0.82"/><circle class="cls-32" cx="395.48" cy="45.83" r="2.69"/><circle class="cls-32" cx="427.47" cy="4.86" r="1.56"/><circle class="cls-32" cx="413.43" cy="3" r="1.18"/><ellipse class="cls-32" cx="378.28" cy="-0.06" rx="1.22" ry="1.17"/><ellipse class="cls-32" cx="403.38" cy="-0.51" rx="1.08" ry="1.04"/><ellipse class="cls-32" cx="393.08" cy="1.97" rx="0.82" ry="0.79"/><ellipse class="cls-32" cx="442.24" cy="19.24" rx="0.82" ry="0.79"/><ellipse class="cls-32" cx="362.95" cy="30.72" rx="1.22" ry="1.17"/><ellipse class="cls-32" cx="392.48" cy="28.11" rx="1.08" ry="1.04"/><ellipse class="cls-32" cx="382.18" cy="23.89" rx="0.82" ry="0.79"/><ellipse class="cls-32" cx="436.43" cy="30.52" rx="1.17" ry="1.22"/><ellipse class="cls-32" cx="439.04" cy="60.05" rx="1.04" ry="1.08"/><ellipse class="cls-32" cx="443.26" cy="49.74" rx="0.79" ry="0.82"/><circle class="cls-32" cx="515.74" cy="69.46" r="2.69"/><circle class="cls-32" cx="488.96" cy="16.5" r="2.39"/><circle class="cls-32" cx="585.13" cy="14.4" r="2.69" transform="translate(161.2 417.97) rotate(-45)"/><circle class="cls-32" cx="523.86" cy="5.68" r="1.75"/><circle class="cls-32" cx="547.73" cy="28.49" r="1.56"/><circle class="cls-32" cx="533.69" cy="26.63" r="1.18"/><ellipse class="cls-32" cx="498.54" cy="23.57" rx="1.22" ry="1.17"/><ellipse class="cls-32" cx="523.64" cy="23.12" rx="1.08" ry="1.04"/><ellipse class="cls-32" cx="513.34" cy="25.6" rx="0.82" ry="0.79"/><ellipse class="cls-32" cx="562.5" cy="42.87" rx="0.82" ry="0.79"/><ellipse class="cls-32" cx="483.21" cy="54.35" rx="1.22" ry="1.17"/><ellipse class="cls-32" cx="512.74" cy="51.74" rx="1.08" ry="1.04"/><ellipse class="cls-32" cx="502.44" cy="47.52" rx="0.82" ry="0.79"/><ellipse class="cls-32" cx="556.69" cy="54.15" rx="1.17" ry="1.22"/><ellipse class="cls-32" cx="558.8" cy="13.21" rx="1.08" ry="1.04"/><circle class="cls-32" cx="405.46" cy="576.75" r="2.69"/><circle class="cls-32" cx="378.68" cy="523.8" r="2.39"/><circle class="cls-32" cx="413.58" cy="512.98" r="1.75"/><circle class="cls-32" cx="423.41" cy="533.93" r="1.18"/><ellipse class="cls-32" cx="388.26" cy="530.87" rx="1.22" ry="1.17"/><ellipse class="cls-32" cx="413.36" cy="530.41" rx="1.08" ry="1.04"/><ellipse class="cls-32" cx="403.05" cy="532.9" rx="0.82" ry="0.79"/><ellipse class="cls-32" cx="372.93" cy="561.65" rx="1.22" ry="1.17"/><ellipse class="cls-32" cx="402.46" cy="559.04" rx="1.08" ry="1.04"/><ellipse class="cls-32" cx="392.16" cy="554.82" rx="0.82" ry="0.79"/><ellipse class="cls-32" cx="449.02" cy="590.98" rx="1.04" ry="1.08"/><ellipse class="cls-32" cx="453.24" cy="580.67" rx="0.79" ry="0.82"/><circle class="cls-32" cx="374.4" cy="492.31" r="2.69" transform="translate(-238.46 408.94) rotate(-45)"/><circle class="cls-32" cx="411.8" cy="478.23" r="1.56"/><ellipse class="cls-32" cx="397.03" cy="463.84" rx="0.82" ry="0.79"/><ellipse class="cls-32" cx="402.84" cy="452.57" rx="1.17" ry="1.22"/><ellipse class="cls-32" cx="400.22" cy="423.04" rx="1.04" ry="1.08"/><ellipse class="cls-32" cx="396.01" cy="433.34" rx="0.79" ry="0.82"/><ellipse class="cls-32" cx="400.73" cy="493.51" rx="1.08" ry="1.04"/><circle class="cls-32" cx="525.72" cy="600.39" r="2.69"/><ellipse class="cls-32" cx="569.28" cy="614.61" rx="1.04" ry="1.08"/><ellipse class="cls-32" cx="573.5" cy="604.3" rx="0.79" ry="0.82"/><circle class="cls-32" cx="395.48" cy="393.48" r="2.69"/><circle class="cls-32" cx="368.7" cy="340.52" r="2.39"/><circle class="cls-32" cx="403.6" cy="329.7" r="1.75"/><circle class="cls-32" cx="427.47" cy="352.51" r="1.56"/><circle class="cls-32" cx="413.43" cy="350.65" r="1.18"/><ellipse class="cls-32" cx="378.28" cy="347.59" rx="1.22" ry="1.17"/><ellipse class="cls-32" cx="403.38" cy="347.14" rx="1.08" ry="1.04"/><ellipse class="cls-32" cx="393.08" cy="349.62" rx="0.82" ry="0.79"/><ellipse class="cls-32" cx="362.95" cy="378.37" rx="1.22" ry="1.17"/><ellipse class="cls-32" cx="392.48" cy="375.76" rx="1.08" ry="1.04"/><ellipse class="cls-32" cx="382.18" cy="371.54" rx="0.82" ry="0.79"/><ellipse class="cls-32" cx="438.54" cy="337.23" rx="1.08" ry="1.04"/><circle class="cls-32" cx="433.81" cy="253.98" r="2.69"/><circle class="cls-32" cx="460.59" cy="306.94" r="2.39"/><circle class="cls-32" cx="364.42" cy="309.04" r="2.69" transform="translate(-111.79 348.2) rotate(-45)"/><circle class="cls-32" cx="425.69" cy="317.76" r="1.75"/><circle class="cls-32" cx="401.82" cy="294.95" r="1.56"/><circle class="cls-32" cx="415.86" cy="296.81" r="1.18"/><ellipse class="cls-32" cx="451.01" cy="299.86" rx="1.22" ry="1.17"/><ellipse class="cls-32" cx="425.91" cy="300.32" rx="1.08" ry="1.04"/><ellipse class="cls-32" cx="436.21" cy="297.84" rx="0.82" ry="0.79"/><ellipse class="cls-32" cx="387.05" cy="280.56" rx="0.82" ry="0.79"/><ellipse class="cls-32" cx="466.34" cy="269.08" rx="1.22" ry="1.17"/><ellipse class="cls-32" cx="436.81" cy="271.7" rx="1.08" ry="1.04"/><ellipse class="cls-32" cx="447.11" cy="275.91" rx="0.82" ry="0.79"/><ellipse class="cls-32" cx="392.86" cy="269.29" rx="1.17" ry="1.22"/><ellipse class="cls-32" cx="390.25" cy="239.76" rx="1.04" ry="1.08"/><ellipse class="cls-32" cx="386.03" cy="250.06" rx="0.79" ry="0.82"/><ellipse class="cls-32" cx="390.75" cy="310.23" rx="1.08" ry="1.04"/><ellipse class="cls-32" cx="513.12" cy="292.92" rx="1.17" ry="1.22"/><ellipse class="cls-32" cx="510.51" cy="263.39" rx="1.04" ry="1.08"/><ellipse class="cls-32" cx="506.29" cy="273.69" rx="0.79" ry="0.82"/></g><ellipse class="cls-2" cx="761.5" cy="80" rx="3" ry="2.5" transform="translate(431.56 770.96) rotate(-70.47)"/><ellipse class="cls-2" cx="777.38" cy="87.77" rx="3.66" ry="2.67" transform="matrix(0.26, -0.96, 0.96, 0.26, 488.47, 814.78)"/><ellipse class="cls-2" cx="796.5" cy="94" rx="4" ry="3.5" transform="matrix(0.19, -0.98, 0.98, 0.19, 548.99, 856.88)"/><rect class="cls-37" x="1000.79" y="378.25" width="30" height="52"/><rect class="cls-38" x="494" y="438" width="586" height="197"/><polygon class="cls-39" points="376.79 440.25 1080 440.25 1080 430.07 376.79 430.07 376.79 441.43 378.92 441.43 376.79 440.25"/><rect class="cls-8" x="563.79" y="472.25" width="126" height="131"/><rect class="cls-40" x="627.79" y="472.25" width="62" height="131"/><path class="cls-41" d="M596.89,548.39c-.22.29-.14.83-.14,1.17,0,.56,0,1.12,0,1.68,0,.95-.73,1.83-.74,2.76s.33,1.61.31,2.43a7.86,7.86,0,0,0,.72,2.62,4,4,0,0,0,.92,2c1,1,2.35.15,3.23-.7.42-.41.75-.9,1.15-1.33s.52-1.56,1-1.89c.25-.18,1.16,1.75,1.18,2,.12,1.8,1,3.6.81,5.39-.15,1.43-.47,2.5-.74,3.92-.32,1.65-.34,3.35-.57,5-.13,1-.84,4,.17,4.33.62.2.37.14,1,.09.47,0,1.34-.29,1.78,0a10.72,10.72,0,0,0-.1,3.56c.27,1.19.5,2.39.82,3.57a15,15,0,0,1,.7,3.13,9.73,9.73,0,0,1-.76,3.16,14.49,14.49,0,0,0-.89,3.51c-.07,1.34-.14,2.67-.19,4s-.18,2.52-.19,3.78c0,.15,0,.29,0,.43h8.35c.35-1.37.53-2.8.79-4.2.39-2.15.74-4.32,1.15-6.46.7-3.64,1.44-7.32,1.93-11.05a38.26,38.26,0,0,0,.3-5.94c0-1-.09-2.1-.16-3.14-.05-.87.37-.5.62,0,.35.69.86.38,1.43.3s.49-.49.41-1.12c-.28-2.15-.71-4.28-1.08-6.4a13.21,13.21,0,0,0-.72-3.38c-.35-.82-.42-1.84-.71-2.71a22.37,22.37,0,0,1-.7-3.09c-.17-1-.44-1.88-.52-2.86,0-.42-.51-1.82-.25-1.95,1.51-.77,1.17-1.52,2.66-2.31a8.31,8.31,0,0,0,1.82-1.24c.77-.73.24-2.19.11-3.15-.3-2.19-1-4.15-.9-6.38,0-.94,0-1.32-.79-1.34-.19,0-.47.14-.52-.15-.09-.5-.72.1-.9-.38s-.42-.68-.53-1.07a5.22,5.22,0,0,0-.46-1.6c-.47-.75-.77-1.35-1.64-1.34a2.59,2.59,0,0,0-1.77,1.08c-.19.3-.81.34-.6.92s.61.52,0,1.07c-.35.3.22.91.37,1.16.38.61,1,.5,1.62.56.2,0,1.28-.2,1,.47a5,5,0,0,0,.59,2.44c.36.64,1.12,5,.29,5.37a1.6,1.6,0,0,1-.55,0c-.27,0-.47.25-.73.29s-.52-.15-.8-.11-.49.33-.73.28a1.37,1.37,0,0,0-.49-.18c-.24,0-.39.27-.64.19s-.22.24-.44.16,3.51.54,3.26.49a.64.64,0,0,0-.49.15c-.3.17-.21-.18-.38-.31a3.3,3.3,0,0,0-1.36-.7c-1.19-.16-2.13.79-3.15-.11a4.85,4.85,0,0,1-1.64-3.42,10.91,10.91,0,0,1-.08-1.37c0-.6.47-.93.27-1.63-.13-.46-.14-.94-.59-1.1s-.42-.89-.62-1.25-1.14-1.38-1.6-1.4c-.66,0-1.27-.71-1.89-.69-.2,0-.41,0-.62.07s-.44.08-.64.08c0,.12-.43.46-.48.47a3.89,3.89,0,0,0-.8.71c-.13.19-.25.74-.42.83v0c-.1.6-.55,1-.46,1.6a4.41,4.41,0,0,1,.11,1.06,4.61,4.61,0,0,1,.27.87c0,.43.77,1.89,1.14,1.92.29,1.13.82,1.95,1.83,1.95.25,0,.61.82.71,1,.23.51-.2.89-.37,1.35-.11.29-.28.88-.56,1-.44.24-1.2.12-1.71.36-.36.17-.68.44-1,.59s-.62.06-.88.25c-.58.4-.47,1.22-.47,1.86a12.37,12.37,0,0,1-.24,2c-.15.67-.59,1-.59.08,0-.72.7-1.36.47-2s-.16-1.38-.43-2-.08-.54-.13-1.12c-.07-.82.28-1.49.19-2.28,0-.26.23-.4.27-.64a2,2,0,0,0-.13-.75.74.74,0,0,0-.88-.58c-.19.06-.33-.12-.53,0s-.24.25-.43.21-1.22.74-1.22,1c-1.08.61.29,3,.39,3.74C597.15,548.2,597,548.27,596.89,548.39Z"/><path class="cls-42" d="M672.18,494.58a10.8,10.8,0,0,0-.76-2.7c-1.06-1.76-2.92-2.19-4.55-2.93a15.17,15.17,0,0,0-5-1c-1.2-.1-2-1.41-3.25-1.41-.58,0-.5-3.65-.49-4.35a20.9,20.9,0,0,1,.47-4.94c.26-1.05-.12-2.05,0-3.11,0-.54.13-1.06.15-1.59H620.1c.3,2.3,1,4.45,2.92,5,2.1.62.11-.39,2-1.41.47-.25,1.94-1.58,2.33-1.17,1.11,3.51,2.32,7.06,3.23,10.65.48,1.88.94,3.76,1.41,5.64a4.64,4.64,0,0,1,.33,1.3c-.51.52-1,1.06-1.54,1.52-2.06,1.77-5,3.94-6.21,6.7-.62,1.4-.5,3.92-.61,5.47s-.21,3.14-.38,4.71c-.11,1-.32,1.53.55,1.92a5.58,5.58,0,0,1,.7.45c.56.32.6-.3.69.63.05.56.18,1.18.76.8a8.58,8.58,0,0,1,.33,2.87,6.27,6.27,0,0,0,.7,3c.56,1.21.09,3.69,1,4.47.58,0,.3-2.43.31-3,.82-.29,1.27,1.27,1.59,1.87a7.13,7.13,0,0,0,.77,1.23c.45.54.38,0,.73.08s.23.9.7.71c.11,0,.32-.57.32-.57.76.1.29-1,.18-1.43a7.47,7.47,0,0,0-1.41-3c-.16-.2-.73-1-.38-1.26.5.27.92.72,1.41,1s1.57-.35.95-.58a6.42,6.42,0,0,1-1.78-1.5c-.7-.66-2.09-1.21-2.44-2.25a8.1,8.1,0,0,1-.35-2.29c0-1,.08-1.94.16-2.93a9.07,9.07,0,0,0-.12-3.84c-.23-.62.23-1.55.15-2.27-.06-.53.26-.69.73-.72.8,0,.3-1.25.16-1.66-.26-.75.56-.15.81-.14s1.52-.3,1.56-.67c.1-.89.24-.69,1-.89s1-1.12,1.72-.85c.42.16.55.41.9.66a4.54,4.54,0,0,0,3.42,1.07c1.41-.11,2.79-1.21,4-1.92.72-.42,1.14,1.61,1.22,2.14.05.33.38,2.19,0,2.35a1.18,1.18,0,0,0-.54,1.49c.13.48-.13,2.71.6,2.47.57,1,.56,2.93.76,4.1.1.59.13,1.28.67,1.57.2.11,1.19-.16,1.21-.14.26.33,0,.7.49,1s.93.36,1.28.65c.77.63,1.83-.26,2.55-.57a3.88,3.88,0,0,0,2.22-2.24,12.71,12.71,0,0,0,.83-2c.06-.53-.3-.86-.43-1.33-.19-.7-.25-1.62-.37-2.35a9.55,9.55,0,0,1-.21-1.26.5.5,0,0,0,.2-.46,4.79,4.79,0,0,0-.87-2.47c-.34-.43-.85-.15-1.07-.69-.1-.23-.27-.36-.38-.58-.5-.94-.91-1.34-.33-2.06.45-.56.21-2.77,1.16-1.83a5.16,5.16,0,0,0,3.15,1c1.71.16,3.61.39,4-2,.21-1.22.34-1.08,1.36-1.18.44,0,1.24-.36,1.63,0s.2.39.71.58a3,3,0,0,0,2.6-.15c.15-.11,1.31.26,1.32.26.11.22-.26,1.47-.2,1.82a12.7,12.7,0,0,0,.63,1.83,26.53,26.53,0,0,1,.71,2.85,31.9,31.9,0,0,1,.89,5.1,9.66,9.66,0,0,1,0,2.33,7.07,7.07,0,0,1-1,1.81,10.18,10.18,0,0,0-1.24,3.94c0,.35-.36.87-.31,1.16.11.73,1-.3,1-.42.42-.75.4-1.67,1-2.36.89,1.29-.52,4.3.89,5.5.72.61.55-3,.4-3.21.55.8,0,3,.93,3.62,1.08.13.08-2.4.27-2.94,0,0,.22,1.12.22,1.25,0,.43,0,.68.4.7,1.24-.11-.4-4.12.22-4.4.13-.06.71,2.76.84,2.94.7,1,.4-2.07.4-2.09-.2-1.45-.3-2.89-.49-4.35a15.38,15.38,0,0,1-.57-3.18,4.33,4.33,0,0,1,.14-1.35c.28-.08.74,0,.75-.45,0-.65-.5-2.07.13-2.26a8.14,8.14,0,0,0,1.6-1.07c.33-.21-1.47-4.83-1.68-5.51C672.78,496.57,672.46,495.58,672.18,494.58Z"/><rect class="cls-43" x="561.79" y="470.25" width="130" height="2"/><rect class="cls-43" x="561.79" y="471.25" width="2" height="133"/><rect class="cls-43" x="689.79" y="471.25" width="2" height="133"/><path class="cls-44" d="M636.66,600.2a9.16,9.16,0,0,0-3.66,3.42h56.41v-19c.31-.56.18-1.49-.67-3-4.67-8.61-14.71-19-18.6-19.38s-9.51,2.07-11.51,4.38-1.18,10.92-2.36,13.06S645.11,582,645.11,582s-12.58-7.31-10.92,1.12S640.21,598.17,636.66,600.2Z"/><path class="cls-44" d="M562.78,568.67c2.46,4.22,5.05,8.91,6.16,13.75A121.38,121.38,0,0,1,576,565.05a32.22,32.22,0,0,0,.83-4.85.33.33,0,0,1-.36-.23,25.49,25.49,0,0,0-4.67-8.73.3.3,0,0,1,.47-.38,26.21,26.21,0,0,1,4.63,8.49,32,32,0,0,0-1.15-11c-.11-.38.49-.47.6-.1a32.5,32.5,0,0,1,.72,14.73A120.74,120.74,0,0,1,591.87,541a118.6,118.6,0,0,1,13.36-13.4c.3-.25.68.22.38.47a119.81,119.81,0,0,0-29,37.16,32.69,32.69,0,0,1-3.18,7.94.27.27,0,0,1-.46,0q-2,4.93-3.65,10l-.11.37,0,.25A47.74,47.74,0,0,1,596.67,555c.36-.14.62.41.25.55a46.8,46.8,0,0,0-19.66,14.73,14.48,14.48,0,0,1,13.47-3c.37.11.15.67-.22.57a13.83,13.83,0,0,0-14.2,4.31.31.31,0,0,1-.43,0,46.61,46.61,0,0,0-6.47,13.08,18.52,18.52,0,0,1,0,3.05c.37-1.12.75-2.23,1.17-3.33,1.24-3.26,4-6.65,7.89-5.79.38.08.32.69-.06.6-4.79-1.06-7,4.17-8.07,7.82-1.3,4.27-2.58,8.55-3.86,12.83-.11.37-.68.15-.57-.22.62-2,1.19-4.12,1.78-6.19a.27.27,0,0,1-.21-.39,16.11,16.11,0,0,0,1.37-6.59c-.07.25-.14.5-.21.76s-.66.16-.57-.22c.2-.81.43-1.62.67-2.42l0-.23A118,118,0,0,0,565.05,602c-.05.39-.66.33-.6-.06a118.5,118.5,0,0,1,4.12-18.37c-.93-5.18-3.73-10.2-6.34-14.68C562,568.58,562.58,568.33,562.78,568.67Z"/><path class="cls-44" d="M588.26,558.5a57.3,57.3,0,0,0,5.22-11.63c.12-.37.69-.15.57.22a58,58,0,0,1-5.3,11.77C588.55,559.19,588.06,558.83,588.26,558.5Z"/><path class="cls-44" d="M584.12,539.82c.32-.55.65-1.09,1-1.64l1.59-12c.05-.39.65-.33.6.06L585.88,537a87.94,87.94,0,0,1,8.68-11.42c.26-.29.75.07.49.36a87.94,87.94,0,0,0-9.36,12.49l-1.58,11.92c-.05.39-.65.33-.6-.06l1.4-10.56-.3.5C584.41,540.51,583.92,540.15,584.12,539.82Z"/><path class="cls-44" d="M595.95,539.35a20.82,20.82,0,0,1,16.53-6.89c.39,0,.33.62-.06.6a20.18,20.18,0,0,0-16,6.64C596.18,540,595.69,539.64,595.95,539.35Z"/><path class="cls-44" d="M569.77,565.83c.12-.37.69-.15.57.22a28.57,28.57,0,0,0-1.39,8.32c0,.39-.61.33-.6-.06A29.17,29.17,0,0,1,569.77,565.83Z"/><path class="cls-44" d="M672.67,549.36a27.51,27.51,0,0,1,8.62.15,59.91,59.91,0,0,1-6.2-8.4A15.31,15.31,0,0,0,673,539.4a.22.22,0,0,1-.22.14,14.08,14.08,0,0,0-5.71.32c-.22.06-.26-.3,0-.36a14.52,14.52,0,0,1,5.58-.36,15.55,15.55,0,0,0-5.71-2.21c-.22,0-.07-.39.14-.36a15.64,15.64,0,0,1,7.38,3.41,63.93,63.93,0,0,1-6-13.83,68.1,68.1,0,0,1-2.3-10.84c0-.23.32-.32.35-.09a65.33,65.33,0,0,0,8.89,25.63,16.12,16.12,0,0,1,2.85,3.81.18.18,0,0,1-.15.26,58.3,58.3,0,0,0,3.72,4.61l.14.16.14,0c-4.92-5.8-6.95-14.21-5.34-22.6,0-.24.39-.23.35,0a28.59,28.59,0,0,0,1,14.66,10.13,10.13,0,0,1,2.76-8.22c.17-.18.37.09.21.27a9.47,9.47,0,0,0-2.39,9,.22.22,0,0,1-.11.25,23.53,23.53,0,0,0,4.31,7,8.84,8.84,0,0,1,1.5.76c-.43-.49-.85-1-1.25-1.51-1.19-1.53-2-3.92-.32-5.85.16-.19.43,0,.27.19-2,2.37-.17,4.92,1.25,6.47q2.5,2.73,5,5.45c.15.16-.14.41-.28.26-.8-.87-1.63-1.72-2.45-2.58-.07.08-.19.12-.25,0a7.7,7.7,0,0,0-2.77-2.46l.3.31c.15.15-.13.4-.28.26-.33-.32-.65-.65-1-1l-.12,0a56.31,56.31,0,0,0,7.12,6.46c.17.13,0,.45-.22.32a56.59,56.59,0,0,1-7.62-7c-2.81-.82-6.13-.58-9.13-.3C672.39,549.75,672.44,549.38,672.67,549.36Z"/><path class="cls-44" d="M675.76,532.67a28.58,28.58,0,0,0-4-5.89c-.14-.16.14-.42.28-.26a28.94,28.94,0,0,1,4,6C676.19,532.69,675.86,532.87,675.76,532.67Z"/><path class="cls-44" d="M665.39,530.13c-.17-.32-.32-.64-.48-1l-5.33-4c-.17-.13,0-.45.22-.32l4.75,3.55a47.65,47.65,0,0,1-2.81-7.74c-.06-.22.27-.4.33-.18a47.51,47.51,0,0,0,3.11,8.39l5.29,4c.17.13,0,.45-.22.32l-4.69-3.5.15.29C665.81,530.14,665.49,530.32,665.39,530.13Z"/><path class="cls-44" d="M668.89,523.48a13.92,13.92,0,0,1,1.87-10.9c.13-.21.41,0,.27.19a13.5,13.5,0,0,0-1.81,10.54C669.27,523.52,668.95,523.7,668.89,523.48Z"/><path class="cls-44" d="M673.5,544.77c-.14-.16.14-.42.28-.26a13.59,13.59,0,0,0,3.6,2.92c.19.1,0,.42-.22.32A13.88,13.88,0,0,1,673.5,544.77Z"/><rect class="cls-38" x="987.79" y="378.25" width="33" height="52"/><line class="cls-45" x1="401.79" y1="559.25" x2="1079.79" y2="559.25"/><line class="cls-45" x1="401.79" y1="564.25" x2="1079.79" y2="564.25"/><line class="cls-45" x1="440.29" y1="558.75" x2="440.29" y2="605.75"/><line class="cls-45" x1="410.29" y1="558.75" x2="410.29" y2="605.75"/><line class="cls-46" x1="423.29" y1="563.75" x2="423.29" y2="605.75"/><line class="cls-46" x1="452.29" y1="569.75" x2="452.29" y2="605.75"/><line class="cls-46" x1="475.29" y1="574.75" x2="475.29" y2="605.75"/><line class="cls-45" x1="520.29" y1="559.25" x2="520.29" y2="606.25"/><line class="cls-45" x1="600.29" y1="558.75" x2="600.29" y2="604.75"/><line class="cls-45" x1="680.29" y1="559.25" x2="680.29" y2="605.25"/><line class="cls-45" x1="760.29" y1="558.75" x2="760.29" y2="605.75"/><line class="cls-45" x1="840.29" y1="559.25" x2="840.29" y2="605.25"/><line class="cls-45" x1="920.29" y1="559.75" x2="920.29" y2="605.75"/><line class="cls-45" x1="1000.29" y1="559.25" x2="1000.29" y2="605.25"/><line class="cls-45" x1="1080.29" y1="559.75" x2="1080.29" y2="605.75"/><line class="cls-47" x1="402.29" y1="559.75" x2="492.29" y2="578.75"/><line class="cls-46" x1="402.29" y1="564.75" x2="492.29" y2="583.75"/><rect class="cls-37" x="407.79" y="605.25" width="672.21" height="150"/><path class="cls-48" d="M1080.36,704.29l-671.9-10.54s-17.65-20.31-81.64-21.41-116.45,19.2-154.39,21.35c-81.09,4.61-172.73-17-172.73-17l-.39,83,1079.84,22.57Z"/><path class="cls-49" d="M1080,708H408s-18-20-82-20-116.1,21.19-154,24C91,718-1,698-1,698v85H1080Z"/><path class="cls-50" d="M368.91,740.87c-1.78-1.11-4.36-1.59-7.06-1.9-3.63-.42-7.38-.66-11.1-.77a93.74,93.74,0,0,0-10.36.17c-2.78.23-6.55.65-8.75,1.62-3.59,1.59,9,2.46,10.47,2.54a145.15,145.15,0,0,0,23.09-.62c.57-.06.33-.49-.24-.43a143.72,143.72,0,0,1-18.59.77c-3-.07-6-.21-8.91-.51a22.12,22.12,0,0,1-4.17-.64q-.85-.06-.85-.47-.55-.41.47-.51a10.41,10.41,0,0,1,2-.49c5.22-1.14,11.15-1.14,16.73-.94,3.13.11,6.27.32,9.34.65,2.77.29,5.48.71,7.32,1.86C368.64,741.42,369.27,741.1,368.91,740.87Z"/><path class="cls-50" d="M374.87,738.63c-3.55-1.56-7.37-2.11-12.08-2.53-.6-.05-.86.42-.25.47,4.2.37,7.56.66,10.79,2,1.4.59,3.28,1.28,3.39,2.31.17,1.53-3,2.32-5.38,2.67a185.8,185.8,0,0,1-24.62,1.59.7.7,0,0,0-.31.06c-3.55,0-7.1-.11-10.6-.43-4.22-.38-10.9-1.23-10.87-4,0-2.5,7.12-3.8,10.87-4.45,4.45-.77,9.1-.59,13.78-.5.61,0,.61-.48,0-.49-5.64-.11-11.25-.13-16.48,1-3.64.78-9.11,2-9.12,4.45s4.4,3.6,8.22,4.14a135.89,135.89,0,0,0,18.59.83.49.49,0,0,0,.43-.16q5.9-.16,11.75-.63c4.13-.34,10.42-.48,13.35-2.25C378.77,741.22,377.35,739.72,374.87,738.63Z"/><rect class="cls-40" x="349.49" y="294.96" width="2.94" height="445.41"/><rect class="cls-51" x="347.28" y="294.96" width="2.94" height="445.41"/><circle class="cls-52" cx="349.85" cy="286.26" r="19.14" transform="translate(-59.28 478.49) rotate(-64.46)"/><path class="cls-51" d="M358.11,269a19.14,19.14,0,0,1-16.51,34.54s13.8-1.56,19.2-12.86C365.56,280.71,358.11,269,358.11,269Z"/><path class="cls-40" d="M349.85,303.47a14.18,14.18,0,0,0-5.52,1.19,17,17,0,0,0,5.48,1.46h.07a17,17,0,0,0,5.48-1.46A14.18,14.18,0,0,0,349.85,303.47Z"/><path class="cls-48" d="M765.43,746.86c8.05.09,8.12-5.91.06-6-32.32-.35-79.07-.27-85.52-.27-8.8,0-6.4-4.8,0-4.8h133.6c8.8,0,27.2-5.6,34.4-5.6h24.8c7.2,0,6.4-7.2,0-7.2h-236c-8.8,0-7.2,6.4,0,6.4h24c5.6,0,9.6,8,0,8H548c-10.4,0-8.8,9.6,0,9.6C555,747,704.29,746.21,765.43,746.86Z"/><path class="cls-48" d="M109.29,756l28.66-.13a22.32,22.32,0,0,1,2.52.13l110.37-.6c.73-.69,2.48-1.26,5.24-1.27l33.34-.15c2.92,0,4.08-3.64,0-3.62l-60.24.27c-5.85,0-5.86-2.19.87-2.22l12-.05c3.51,0,4.08-2.64,0-2.62l-14,.06c-4.68,0-3.52-2.8,0-2.82l20.47-.09c5,0,7.58-5.27-.6-5.23l-49.71.22-51.47.23c-6.43,0-4.11-4,0-4l33.34-.15c5.85,0,5.25-3.24,0-3.22l-64.34.29c-10.53,0-16.92,12.56,0,12.48l71.35-.32c7.6,0,4.69,4.41,0,4.43l-36.26.16c-4.09,0-30.41.54-41.52.59S97,756,109.29,756Z"/><path class="cls-48" d="M1072.89,715.74H966c-14.06,0-17.82,10.26,0,10.26h107.24Z"/><path class="cls-48" d="M1072.63,730.4h-79c-10.39,0-13.17,5.86,0,5.86h79.26Z"/><rect class="cls-37" x="841" y="441" width="135" height="72"/><rect class="cls-53" x="910" y="441" width="66" height="72"/><path class="cls-10" d="M1017.64,431.2c-5.79.13-.27.08,0,0Z"/><path class="cls-10" d="M1066,0H0V779H1080V0Zm-30.73,765.5H73.19c-58.34,0-58.34-46.05,14.91-46.05H99.83c21.44,0,41.17-46.6,0-46.6H45.94c-50.94,0-46.94-71.34,0-71.34h105c38.39,0,31.41-41,0-41H89.34c-55.11,0-55.11-85,0-85H195c60.33,0,75.29-76.59,0-76.59-43.23,0-117.7-.14-173.28-.25C-6.22,394.92-2,341,27,341H83c75,0,52-66,0-66H65c-35,0-22-42.5-3-42.5H174.5C221,232.5,209,209,198,209H123c-17,0-11-17,0-17H298c15,0,16-19,0-19H39c-28,0-22-32,0-32H195c30,0,33-45,0-45H89c-51,0-34-42,0-42,0,0,290,1,334,1s59-37,87-37H873.36l-.13.08C884,18.08,890.81,44,869.9,44H820.83c-38.89,0-50.86,57,0,57s106.6.8,166.43,0c74.79-1,85.76,100-10,100H828.7c-26.93,0-44.88,48,0,48h212.41c29.92,0,26.93,45,0,45H973.3c-18,0-21.94,27,0,27s39.9.61,66.81,0c43.88-1,36.9,133,0,133h-17.84c-29.92,0-34.9,37,2,37,28.45,0-6.34.11-6.62.2,2,0,5.31-.2,10.65-.2,20.71,0,29.71,37.5-2,37.5H968.81c-38.39,0-55.35,57.33,14,57.33h52.5c43.73,0,63,78,0,78h-24.58c-40.39,0-43.38,33-1,33h25.57C1077,696.85,1092.25,765.5,1035.27,765.5Z"/></g></g></svg>