<svg xmlns="http://www.w3.org/2000/svg" xmlns:xlink="http://www.w3.org/1999/xlink" viewBox="0 0 1342 1080"><defs><style>.cls-1{fill:none;}.cls-2{fill:#ffb4ab;}.cls-3{clip-path:url(#clip-path);}.cls-4{fill:#296c77;}.cls-5{fill:#68c1cb;}.cls-6{fill:#061a1c;}.cls-7{fill:#02464e;}.cls-8{fill:#94e4eb;}.cls-9{fill:#299ea9;}.cls-10{fill:#a0adb4;}.cls-11{fill:#353a3d;}.cls-12{fill:#7d898e;}.cls-13{fill:#c4cfd6;}.cls-14{fill:#c3ced6;}.cls-15{fill:#fff;}</style><clipPath id="clip-path"><rect class="cls-1" width="1316" height="1080"/></clipPath></defs><title>more-gotchas-svg</title><g id="Layer_2" data-name="Layer 2"><rect class="cls-2" x="-2" width="1244" height="1080"/><g class="cls-3"><path class="cls-4" d="M789.59,385.46A14.73,14.73,0,0,0,777.84,387c-13,3.81-24.27,10.16-36.44,15.87-8.87,4.16-18.28,6.55-26.38,11.27-4.75-1-10.56.32-13.1,4.31-7.81,12.27-9.22,26.78-1,38.75a25.7,25.7,0,0,0,19.22,11.45c8.13.62,16.52-2.66,23.66-6.09a95.36,95.36,0,0,0,33.27-25.89c9-11.25,14.77-24.17,19.22-37.22C798.26,393.79,796.09,387.61,789.59,385.46Z"/><path class="cls-4" d="M707.57,431.91c0-.4-.09-.79-.14-1.19-.76-16.65-4.33-33.28-8.78-49.15-4.18-14.91-11.42-28.31-19.32-41.28-1.27-11-1.89-22.07-2.93-32.59a6.89,6.89,0,0,0-3.51-5.7,6,6,0,0,0-6.41-2.33,125.21,125.21,0,0,0-48.17,30.51l-.61.47c-7,5.37-13.92,11-19.4,18.17C592,357,587.24,366.4,582.12,375.38c-2.17,3.81.57,9.82,5.09,9.41,1.07-.1,2.25,0,3.29-.17.65-.12.88.07.94.15.68,5.64,8,7.81,10.91,2.53,2.32-4.21,9-4.27,13-4.74a117.79,117.79,0,0,1,20.7-.67c12.3.76,24.55,4.32,34.85,11.65a41.7,41.7,0,0,1,12.32,13.05c3.37,6,3.49,11.39,1.54,17.91-2.08,7-3.74,13.37-3,20.77s3.1,14.24,5.6,21.09a6.11,6.11,0,0,0,6.38,4.18,5.22,5.22,0,0,0,6.65-1.05C709.46,460.11,708.89,444.24,707.57,431.91Z"/><path class="cls-4" d="M823.91,344c-7,5.3-14.61,4.61-22.68,6.08-12.27,2.23-24.39,7.06-36.35,10.66,3.92-5.83-6.91-4.71-7.5-5.49-2.19-2.92-3-9.54-5.1-11.83-6.6-7.07-14-6-16.71,4.61-5.86-2.45-10.15-23.39-14.32-12.49-2,5.15,4.41,35.94,10.45,38.86,13.45,6.5,47.65-12.55,61.58-16,8.21-2.05,18-.75,25.69-4C825.62,351.56,828.54,340.51,823.91,344Z"/><path class="cls-5" d="M736.88,618.57c-13.61-11.36-37.33-17.8-50.1-30.45-14.5-14.37-14.19-40.64-15.12-60.56-.57-12.35-.14-24.83-1.69-37.13-.94-7.46-3.07-15.11-4.07-22.33-.47-3.4,3.37-4.78,2.54-8.8-1.81-8.79-9.79-18.74-17.6-23.45-5.72-3.45,5.5-3.38,2.78-8.61-.83-1.59,32.37-6.67,30.77-10.22-.21-.46-9.19-15-14.82-22.11a16.88,16.88,0,0,1-3.07-7,4,4,0,0,0-2.29-2.76c-4.75-2.38-9.78-2.73-15-3.14a107.06,107.06,0,0,0-16.64-.31c-8.59.67-30.24-1.38-32.6,8.56a17,17,0,0,0-.5,4.5,9.4,9.4,0,0,1-3.34,7.74c-3.73,3.06,2.21,10.16.23,17.08-2.92,10.19,3.9,32.91,4.55,44.14,1.4,24.36,4,54.22,11.33,77.77,11.07,35.64,44.09,61.22,77,76.16,13.32,6.05,17.49,8.46,27.7,15.82C733.27,645.25,753.88,632.76,736.88,618.57Zm-135.77-222a4.49,4.49,0,0,0,1.09-2.09"/><path class="cls-5" d="M695.78,434.1c-2.53-21.65-6.45-42.48-16.37-62-3.77-7.43-8.71-13.6-10.95-21.55-1.86-6.62,1.48-19.57-2.54-25.11-15.32-21.09-69.56,31.57-78.77,44.1-9.42,12.82-14.38,17.77-1.43,23.86,1.84.86,8.25,3,9.39,3.55,0,0,4.21-2,6.44.38,5.44,5.8-9.52,20.54-1.64,24.59,1.66.85,3-.32,4-2.62v14.18H625.8V389.67c12,1.76,26.08,6.15,30.1,8.23C677.26,409,673,417.16,671.77,436.73c-.71,11.08.23,28.76,13.42,31.35C704.49,471.86,697.16,445.92,695.78,434.1Z"/><path class="cls-6" d="M705.05,787.69l-20.86,10.78c-4.65,2.4-9.69,4.94-12.87,9l-2.5.13a3.87,3.87,0,0,0-3.62,3.95l-1,45c-.16,7-.67,14.34,0,21.48-2.91,6.83-1.85,15.21,3.35,22,6.61,8.68,16.38,14.08,26.88,16.59s21.63,2.06,32.38,2l.26.07c8.56,2.25,17.85,3.9,26.95,3.69a42.06,42.06,0,0,0,12.24,2.32c7.72.22,16.88-3,21.63-9.42a20,20,0,0,0,5.66-9.15c3-10.41-4.71-18.35-13.48-22.4-2.81-1.3-5.73-2.36-8.62-3.46-11.06-10.62-23.61-21.6-32.5-32.88-5.85-7.42-9.29-13.55-11.55-22.32-1.91-7.44-2.33-16.08-2.65-24.4a73.9,73.9,0,0,1,1.82-8.31c1-3.46-3.73-6-6.2-3.67C716.31,785.54,710.16,785.05,705.05,787.69Z"/><path class="cls-4" d="M818.1,444.76c.4-.38-15.57-10.77-15.57-10.77S743,469.72,726.62,476.49c.18-.08-17.56,21.82-19.59,22.25-6.89,1.45,1.86-43.88-14.56-33.61-1.29.81-4.52,76.41-4.92,75.42,8.92,22,15.79,16.29,33.21,28.14,34.33,23.35,23.44,65,2.66,65-51.33,0-84.4,125.07-61,178.88,13.2,30.37,61.87,50.19,86.42,20,18.59-22.84,9-82.95,15.12-110.8,7.55-34.61,8.86-46.95,17.53-81.38,17.26-68.55,2.16-86.86-46.82-112.53C765.78,503.66,789.54,471.68,818.1,444.76ZM740.7,642.56C740.5,642.86,718.78,655.61,740.7,642.56Z"/><polygon class="cls-7" points="706.59 448.58 683.02 475.51 699.01 521.8 729.31 484.77 706.59 448.58"/><path class="cls-6" d="M562.3,705.17l-9.5-21.47c-2.12-4.79-4.35-10-8.25-13.39q0-1.25,0-2.5a3.87,3.87,0,0,0-3.72-3.85L496,660.21c-6.93-.58-14.27-1.53-21.44-1.29-6.64-3.32-15.07-2.76-22.21,2-9.06,6.07-15,15.5-18.17,25.83s-3.36,21.47-3.92,32.2l-.09.25c-2.76,8.41-5,17.59-5.3,26.68A42.06,42.06,0,0,0,421.76,758c-.69,7.69,2,17,8.11,22.15a20,20,0,0,0,8.79,6.2c10.21,3.6,18.6-3.6,23.17-12.11,1.47-2.73,2.7-5.57,4-8.4,11.27-10.4,23-22.27,34.77-30.46,7.76-5.39,14.09-8.46,23-10.18,7.54-1.46,16.2-1.36,24.51-1.17a73.9,73.9,0,0,1,8.19,2.32c3.4,1.18,6.22-3.36,4-6C563.77,716.54,564.63,710.43,562.3,705.17Z"/><path class="cls-7" d="M763.91,246.66c-10.54-.87-17.73.9-27.91,3.23-6.16,1.41-14.11,4.67-20.39,4.61-8.45-.08-15.45-7-25.3-4C678.75,254.1,656,286.91,658.85,298c2,7.73,7.28,6.33,12.15,9.85l7.68-1.12,1.09,6.45c6.21,5,12.32,19.42,22.81,8.53.35,2.47,6.22,3.91,8.14,6.48,4.19,5.6,4,13.37,5.83,19.77,1.41,4.81,6.23,11.16,5.85,16.46-.65,9-7.32-1.5-6,9.16,3.5,29,21.34-8.27,26.4-13.33,1.68-1.68,23.17-80.68,13.08-108.06C744.06,255.55,775.13,247.58,763.91,246.66Z"/><path class="cls-5" d="M777.34,265.23c-7-4-2.4-13.8-9.93-17.21-6.82-3.09-16.6,4.13-22.73,6.34-7.7,2.78-25,7.78-30.31,14.41-15.92,19.76,3.77,56.12,15.86,74.32C776,411.94,789.23,272,777.34,265.23Z"/><path class="cls-4" d="M731.83,244.09c20.2,0,31.14-9.26,32-7.57s1.68,7.57-5.89,10.94-33.66,7.57-40.39,8.42-32,4.21-37.87-.84l3.37-7.57,4.21,3.37s2.52-5.89,4.21-5S731.83,244.09,731.83,244.09Z"/><path class="cls-8" d="M763.7,236.48a2.35,2.35,0,0,1-.65-.78c-2.16-4.49-8.26-8.71-11.93-11.89a36.59,36.59,0,0,0-16.21-7.68c-11.38-2.58-23.3-1.19-34.65-4-9.36-2.32-15.17-10.09-24.37-11.7-6-1-12.75-.74-17.7,3.09-4.57,3.53-8.92,11.24-10.27,15.38a1.92,1.92,0,0,1-2.25,1.29c-3.37-.81,4.4,2.81,5.4,5,2.11,4.53,6.45,9.11,9.48,13.15,5.69,7.57,11,11.44,17.11,18.71a1.94,1.94,0,0,0,2.58.36c3.58-2.46,5.32-4,10.34-3.82,7.9.29,13.56-3.11,22.22-3.54a190.69,190.69,0,0,0,31.86-4.44C746.43,245.16,766.48,238.78,763.7,236.48Z"/><path class="cls-7" d="M826.79,350.54c-7.73,31.08-42.77,66-80.31,63.41-21.05-1.42-34.39-10.4-30.93-31.27,1.73-10.44,2.11-20.42,10.71-9.42,10.87,13.9-5.58,18.66,17.29,27.4,23.16,8.86,48.17-10.08,60.36-26.24.34-.45,10.89-34.12,14.19-36.07C825.3,334.14,827.74,346.68,826.79,350.54Z"/><path class="cls-6" d="M816.56,349a12,12,0,0,0-10.72-.32c-12.15,1.74-23.15,6.3-34.84,10.07-7.18,2.32-18.05,5.72-23.18.6-2.52-2.52-3.37-1.68-6.73-.84s-5.47,6.84-7.6,9.54C724.75,379.17,721.4,393.56,727,407c2.88,6.85,8.16,12.66,15.53,14.66,7.18,1.94,15.14,0,22-2.29A84,84,0,0,0,798,398.64c9.66-9.87,16.68-22,22.53-34.38C823.11,358.82,822.06,352.25,816.56,349Z"/><path class="cls-8" d="M828.63,326.16c-16.59-23.37-24.07-62.07-55.71-70.64-24.75-6.71-63.23,12-56.25,40.59,3.89,16,12.49,31.11,20.18,45.53,12,22.45,18,27.32,43,19C791.45,356.74,844.86,349,828.63,326.16Z"/><path class="cls-4" d="M718.92,626.65C693.3,604.56,666.75,596,644,580.26c-22.86-15.86-37.12-53.92-42.58-80.46-3.93-19.11-.47-36.57-.8-55.47a49.45,49.45,0,0,0-.55-6.11,10.09,10.09,0,0,0,.08-1.92c-.31-5-2.07-9.76-1.78-14.87.27-4.71,2.81-8.89,2.64-13.61a19.64,19.64,0,0,1,0-2.39s0-.07,0-.11,0-.16,0-.24a12.1,12.1,0,0,1,1.26-4,11.26,11.26,0,0,0,1.41-5.68c.14-.32.28-.63.43-.93,2.18-2.72,5.18-6.35,3.31-8.18-9.34-9.13-36.64,37.91-38.44,43.17-7.68,22.45-5.28,58.73.44,81.64,6.29,25.18,27,41.58,36.92,65.36,12.46,29.86,15.4,44.73,41.24,58.91,11.74,6.44,21.76,12.63,34.5,17.67,3.94,1.56,36.76-14.25,40.87-19.1C725.65,630.93,724.58,623.39,718.92,626.65Z"/><path class="cls-9" d="M764.65,595.85c-9.61.6-9.76,9.18-16.83,15.15-3.11,2.63-10.43,17-14.08,17.84-10.48,2.37-34.87-19.48-45.27-25.45C650.38,581.51,619.7,559,614.08,513c-3.69-30.24-10.57-67.22-8.72-94.72.45-6.73,8.33-27.65,3.61-32.8-9.26-10.1-16-5-18.14,6.27s2.11,38.61,1.92,50.25c-.2,12,.65,25.75,1.12,38,1.35,35.52,11.3,74.53,35.5,100.85,13.92,15.14,29.57,18.06,46.57,27.88,15.64,9,28.16,24.26,45.91,30,16.12,5.18,13.63,1.7,23.11-10.57,6.08-7.87,13.92-12.48,21.69-18.31C763.82,611.93,780.47,594.87,764.65,595.85Z"/><path class="cls-7" d="M722.57,387.36A104.8,104.8,0,0,0,713,347.85c-3.59-8-15.31-34.84-26.15-34-11.31-18.69-23.34-27.79-45.24-18.34-12.75,5.5-36.52,21.87-35,38,1.78,18.82,18.91,11.24,26.63,2.27a56.11,56.11,0,0,1,14.25-12.34A12.34,12.34,0,0,1,664,327.6c19.2,30.33,37.64,60.29,36.47,97.74-.3,9.5-6.68,24.61-2.87,33.56,3.7,8.69,12.91,11.86,20.45,5.51C734.12,450.9,726.64,405,722.57,387.36Z"/><path class="cls-5" d="M793.62,419.62c-25.45,5.82-42.6,18.94-68.08,24.36l0,0-18.9,4.51,22.26,36.72,20.8-8.79h0c1.09-.42,2.17-.86,3.25-1.3h0c10.19-3,18-8.78,26-14.26a16.39,16.39,0,0,1,2.92-1.58c14.7-6.14,36.6-14.88,36.6-14.88L800,418.29"/><path class="cls-5" d="M553.54,669.92c0-.17.06-.35.1-.51s.29-1.14.45-1.81a2.39,2.39,0,0,0,.39-.67h0l.16,0c.4,0,1.29,0,1.78.05l1.24.25c.79.2,1.57.45,2.35.71l.33.09.28.17A32.08,32.08,0,0,0,553.54,669.92Zm34.58-84.16c-.8-1.65-1.63-3.28-2.45-4.92,1.28,1.64,2.56,3.24,3.83,4.8A11.19,11.19,0,0,0,588.12,585.76Zm48.64,57.5c-.33.2-.65.42-1,.64q-.1-2.47-.4-4.91,1.86,1.49,3.76,2.94C638.36,642.35,637.55,642.78,636.76,643.26Z"/><path class="cls-5" d="M732.64,693.62c-4.34-22.92-16-45.25-38.6-57-13.78-7.15-29.6-8.54-43.08-16.48-14.5-8.53-29.9-21.56-39.22-34.87-11-15.67-6.44-39.19-23-50.63S540,520.11,520.37,512.9c-19.84-7.3-35.19-1-35.6,21.19-.45,24,18.3,47.4,33.6,65.43,8.29,9.77,17.22,18.18,26.81,26.81,7.53,6.77,26.4,17.72,28.16,26.41-43.75-21-47.62,29.27-45.4,55.7,3.36,40,38.42,23.31,68.84,21.69,13.14-.7,22.65,3.25,35,6.56,16.07,4.29,33.09,5.19,49.73,6.23,14.76.92,30.83,3.63,42.07-6.91C735.84,724.56,735.41,708.26,732.64,693.62Z"/><path class="cls-5" d="M598.87,547.88c-6.73-21-.84-1.68-3.39-11.66-2.45-9.62-1.59-20.47-8.65-27.89a19,19,0,0,0-9.63-5.52,17.82,17.82,0,0,0-20.25-2.53c-7.91,4.11-11.91,13.65-11.4,22.55a51.23,51.23,0,0,0,11.2,28.6,11.86,11.86,0,0,0,4.24,4.82,58.27,58.27,0,0,0,8.05,6.82,9.9,9.9,0,0,0,7.64,1.38,39.21,39.21,0,0,0,2.88,6.16A11.23,11.23,0,0,0,595,574.84C600.2,571.67,600.79,553.88,598.87,547.88Z"/><path class="cls-9" d="M607.67,643.95c-10.23.31-17-23-18.77-29.34-4.75-17.29-11.18-25.78-23.29-39.34A89.18,89.18,0,0,1,547.37,545c-2.88-7.82-4-24.83-8.38-31.57-6.07-9.25-7-5.21-15.7-8.76-37.39-15.28-14.3,39.7-8.65,57,6.51,19.92,17.88,33.9,31.78,49,10.51,11.41,16.06,23.44,25.87,34.45-11.29.76-25.62-1.2-36.26,2.71-15.71,5.78-9.87,10.65-12.79,22.22-2.28,9-9.56,17.21-7.68,29.59,1.7,11.15,8.72,23.78,21.34,13,8.26-7.05-1.58-25.3,5-30.56,7.23-5.81,41.88-1.72,51.18-2.71,11.19-1.19,27.26-1.62,31.43-14.67C628,653.53,619,643.6,607.67,643.95Z"/><path class="cls-4" d="M586.52,632.49c-8.67-32.23-35.93-52.76-53.58-79.13-9-13.38-11.33-62.71-27.51-63-27.14-.44-5.15,54.63.72,66.32,13.09,26.08,36.8,45.73,51.27,71.52-14,5.42-38.18,10.91-39.43,30.72-.54,8.48,2.8,15.43,12.1,15.48,9.66,0,7.66-7,13-11.17C553.6,655,591.45,650.84,586.52,632.49Z"/><path class="cls-7" d="M738.69,708.85c-.76-3.13-5.22-33.51-8.53-33.51,3.83,0,1.13,43.83-2.24,50.63-10.42,21-24.66,15.75-45.4,14.79-21.42-1-35.65-1.16-54.14-11-24.45-13-41.59-6-67.13-3.33-20.19,2.07-21.4-17.12-26.77-34-4.67-14.74-8.09-38.4,5-50.09,10.53-9.41,30.71-4.07,23.8-26.08-2.18-7-10.21-10.56-14.94-15.17-7.36-7.18-10.56-13.15-15.63-22.31-9.19-16.57-26.25-26.59-32.42-45-4.09-12.19-7.8-42.64,14.06-32.5,4.7,2.18,11.74,11.13,17.71,14.47,7.33,4.1,15.42,9.53,22.92,13.24,17,8.41,31.7,4.11,28.49-16.73-3.6-23.35-5.91-44.21-4.29-68.2,1.3-19.29,10.08-35.2,13.58-53.73,2.49-13.19,2.15-17.6-11.11-13.35-14.48,4.65-30,28.9-39,40.23-14.13,17.93-23.37,38.93-38.13,56.25s-27.2,27.8-24,52.78c3.26,25.47,13.07,38.32,26.61,57.14,7.46,10.37,13,22.18,22.72,31.6l.51.51a10.56,10.56,0,0,1-1.85,15.93c-24.85,17.13-28.12,59.39-17.17,83.47,2.27,5,12.62,10.25,16,22.2,5.79,20.56,31.86,3,47.26-.29,19.81-4.23,34.1,0,52,6,19.55,6.63,42.62,5,63,6,14.38.67,22.91,2.32,33.92-7.05C730.31,735.88,743.36,719.45,738.69,708.85Z"/><path class="cls-4" d="M615.11,325.79h0a8.17,8.17,0,0,1-4.33-3.28c-23.22-34.19-26.05-48.27-6.06-89.95.51-1.05-.93-1.2-1.61.59L502.93,373.69C485.57,397.92,463.47,423,449.5,450c-17.39,33.65,11.47,63.31,46.73,39.73,25.56-17.1,47.43-61,65.94-81.95,3.55-4,6.69-8.39,9.91-12.7a10,10,0,0,1,3-2.69c4.24-2.44,7.86-5.39,10.15-9.12,5.1-8.33,18.11-29.55,28.47-34.68a8,8,0,0,0,2.51-1.85.9.9,0,0,1,.23-.19c.68-.38,1.34-.77,2-1.14l.1,0c.61-.23,1.2-.49,1.77-.76,4.23-1.39,12.22-9.8,12.17-13.87C632.46,324.93,621.24,327.64,615.11,325.79Z"/><path class="cls-10" d="M849.66,642.34c-9.31,3.93-16.92,11-26.56,14.22-4.87,1.63-8.52,4.38-12.93,6.9a71.39,71.39,0,0,1-7.92,3.79q-2.53,1-5.11,1.89c-6.93,2.43-13.56,5.06-19.46,9.46-3,1.22-4.53,5.71-.82,7.36s7.31,3.24,10.41,5.8a40,40,0,0,0,7.7,5.46c3.35,1.66,6.91,2.95,10.37,4.36,2.74,1.12,5,2.07,7.88.87,5.78-2.41,8.17-9.06,8.86-14.77.85-7,1.36-13.72,3-20.49a4,4,0,0,0,.6-1.17,140.87,140.87,0,0,0,13.87-6.34c4.47-2.5,8.07-6.78,13.15-8a3.71,3.71,0,0,0,3-3.56C857.31,645.2,853.71,640.63,849.66,642.34Z"/><polygon class="cls-11" points="779.86 720.72 807.93 739.75 817.9 696 779.86 720.72"/><path class="cls-12" d="M815.39,763.6s-3.61,5.6-13.71-.29-73.21-48-74.06-49.65,1.64-10.44,4.19-9.43c0,0,0,5.22,5.91,9.43S806.38,763.89,815.39,763.6Z"/><path class="cls-10" d="M814.81,743.55c-.45-3.2-3.25-3.91-5.58-3a52.71,52.71,0,0,0-4.28-4.13c-5.61-5-11.08-10.21-16.85-15-5.08-4.24-9.73-.29-14.61,2.4-4.09,2.25-11.65,5.86-7.73,11.9,1.35,2.08,3.83,2.93,5.66,4.47,2.46,2.08,4.42,4.54,7.13,6.35,5.92,3.94,12.67,6.89,18.94,10.22,4.1,2.18,11.94,8.71,16.35,4C817.55,756.92,815.46,748.24,814.81,743.55Z"/><path class="cls-6" d="M796.33,671.16c1.34-5,1.41-10.29,1.35-15.39a12.05,12.05,0,0,0-.22-2.7c3.25,7.21.94,15-.11,22.73a1.68,1.68,0,0,1-.07.3c-.46,1.41-.95,2.77-1.43,4a3.38,3.38,0,0,0,1.14,4.2,1.92,1.92,0,0,0,1.94,1.47c3.25,0,5.71-.83,6.8-4.09a57.31,57.31,0,0,0,1.61-6.1,1.44,1.44,0,0,1,.25-.58,2.08,2.08,0,0,0,.36-.73c1.46-5.34,3.06-11.56,2.84-17.15a21.57,21.57,0,0,0-.22-2.27c1.8,4.06,2.38,8.52,2.62,13.56.2,4,2.4,9.45,6.25,7.89a2.25,2.25,0,0,0,3.78-1.4,48.29,48.29,0,0,1,1.24-8.19,17.82,17.82,0,0,0,1-5.06c-.1-3.69-2.62-7.38-3.59-10.95-1.41-5.22-3.22-10.14-7-13.27a1.41,1.41,0,0,1-.23-.23,43.84,43.84,0,0,0-3.08-3.61c-4.8-5-10.89-8.49-16.39-12.65a97.21,97.21,0,0,1-16.25-15.83,3.41,3.41,0,0,0-4.64-.86,1.75,1.75,0,0,1-.83.26,17.61,17.61,0,0,0-6.12,1.53c-1.21.54-2.39,1.14-3.55,1.78l-.14.07c-6.6,2.64-12.12,7.82-16.32,13.84l-.08.1c-2.64,3.06-5.1,6.28-7.47,9.54-2.71,3.72-6.56,7.85-6.28,12.43a1.58,1.58,0,0,1,0,.5,7.76,7.76,0,0,0,3.24,8.76,103,103,0,0,0,10.28,6,24.34,24.34,0,0,0,4.23,2.07c.32.11,2.48.4,3.85.68.13.15.25.3.39.44a12.61,12.61,0,0,0,.93.88,1.7,1.7,0,0,1,.35.42,3.43,3.43,0,0,0,2.91,1.66q.57.26,1.15.46a1.68,1.68,0,0,1,1.11,1.84c-1,6.65-3.6,12.77.51,19.36a4,4,0,0,0,2.73,1.92,4.53,4.53,0,0,0,7.06-1.88,58.17,58.17,0,0,0,3.75-16.2,1.66,1.66,0,0,1,3.06-.8l0,0c2,3.17.86,6.63-.06,10a2,2,0,0,0,0,1.05,1.73,1.73,0,0,1,0,1c-.31.88-.6,1.77-.83,2.66a3.15,3.15,0,0,0,2.33,4.15,2,2,0,0,0,1.83.25,5.1,5.1,0,0,0,3.66-.95,11.16,11.16,0,0,0,3.76-4,2.34,2.34,0,0,0,.28-.19,17.9,17.9,0,0,0,4.74-6.26,1.63,1.63,0,0,0,.86-.81"/><path class="cls-13" d="M944.58,605c-9.29-5.7-19.8,1.25-28.21,5.34Q894.42,621,873.16,633a6.17,6.17,0,0,0-3.11.94q-6,3.61-12.24,6.78a5.16,5.16,0,0,0-1.39,1q-18.83,10.94-38.27,20.78A5.3,5.3,0,0,0,815,668l-.15.24c-2.57,4.43-2.32,10.22-2.74,15.23-3.59,22.74-6.21,45.63-7.72,68.6-.54,8.19,10.22,14.73,17.09,9.81,10.68-7.64,23.1-12.54,35-18l37.82-17.24c12.66-5.77,25.77-11,38.12-17.39,7.33-3.79,9.93-10.49,10.3-18.38.09-2,.17-3.94.26-5.91a519.9,519.9,0,0,0,7.51-51.47C951.39,624,954.41,611,944.58,605Z"/><path class="cls-10" d="M785.46,719.52c-4-1.28-6.94.89-10.13,2.85s-6.83,2.91-9.13,6.06c-2.89,4,3.89,7.7,6.76,3.78,1-1.32,4.06-2.06,5.5-2.88,1.17-.67,3.6-3,4.92-2.58C788.17,728.27,790.22,721,785.46,719.52Z"/><path class="cls-14" d="M779.65,679.74a6.51,6.51,0,0,0-.64-.38l-1.74-1-.57.38a6.18,6.18,0,0,0-3.31.76q-9.69,5.14-19,10.94c-2.21,1.38-4.39,2.94-6.62,4.44a61.51,61.51,0,0,0-9.77,4.48c-5.24-.07-8.87,7.45-4.67,11.39a6.26,6.26,0,0,0,2.43,2.21l.18.19a12.94,12.94,0,0,0,1.65,1.34c1.56,1.47,3.07,3.05,4.62,4.4,3.49,3.06,7.69,5.65,11.35,8.59,2.63,2.11,5.54,5.38,8.6,6.83a3.52,3.52,0,0,0,2.1.4,3.89,3.89,0,0,0,.94.11,1,1,0,0,0,.76-.11,1,1,0,0,0,.63-.54,113.45,113.45,0,0,1,10.14-10,55.35,55.35,0,0,0,8-5.51c5.36-4.44,11.78-6.93,17.32-11.07a7,7,0,0,0,1.12-1c.86-.53,1.72-1.07,2.56-1.64a59.21,59.21,0,0,1,4.8-3.56,1.11,1.11,0,0,0,.61-.86l1.57-1.06Z"/><path class="cls-6" d="M779.8,677.48a28.9,28.9,0,0,0-.9,3.63,1.73,1.73,0,0,1,0,1c-.31.88-.6,1.77-.83,2.66a3.15,3.15,0,0,0,2.33,4.15,2,2,0,0,0,1.83.25,5.1,5.1,0,0,0,3.66-.95,11.16,11.16,0,0,0,3.76-4,2.34,2.34,0,0,0,.28-.19,17.9,17.9,0,0,0,4.74-6.26,1.63,1.63,0,0,0,.86-.81"/><path class="cls-6" d="M760.72,665.78a1.68,1.68,0,0,1,1.11,1.84c-1,6.65-3.6,12.77.51,19.36a4,4,0,0,0,2.73,1.92,4.53,4.53,0,0,0,7.06-1.88,58.17,58.17,0,0,0,3.75-16.2"/><path class="cls-12" d="M872.23,735.71l-1.46.57a.82.82,0,0,0-.24,0,77.39,77.39,0,0,0-21.21,9.12c-5.32,2.81-10.59,5.71-15.89,8.56-6.33,3.41-13.59,8.93-21,9a1.15,1.15,0,0,0-1.1.71,7,7,0,0,1-1.32-.31c-1.54-.52-2.21,1.92-.67,2.43a8.72,8.72,0,0,0,7.14-.72l.19-.13c5.4-1.29,10.31-4.64,15.15-7.25,6.83-3.67,13.61-7.43,20.48-11a1.21,1.21,0,0,0,.44-.38,1.2,1.2,0,0,1,.44-.37,174.14,174.14,0,0,1,19.47-8.6C873.69,737,873.25,735.33,872.23,735.71Z"/><path class="cls-7" d="M603.08,233.15c-15.1,21-44.13,54.77-59.72,75.49-23.82,31.66-48.8,64-71.25,96.76-10.37,15.14-43.28,61.42-22.19,82.74,9.91,10,22-.42,13.84-15.79-14.43-27.11,88.4-161.54,109.35-176.39-.19-.07.86,1.46.52.32C566.49,272.21,590.93,256.07,603.08,233.15Z"/><path class="cls-9" d="M651,313.1c-18.17-18-40.19-98.6-15.52-96.78-34.13-2.52-68.88,56-33.79,108.27C623.55,357.1,630,329.09,651,313.1Z"/><path class="cls-6" d="M724.85,365.38a123.56,123.56,0,0,0-12.9-39l-.38-.7a10.51,10.51,0,0,1-1.34-3.77,2.35,2.35,0,0,0-.32-.93c-6-10.12-12.69-22.3-5.43-33.44,1-1.57,0-2.83-1.43-3.29a5.2,5.2,0,0,1-1.38-.71,2.93,2.93,0,0,0-2.69-.25c-11.26,3.94-19,12.72-20.6,22.77-1.31,8.38.56,21.22,12,23.78l.39.07a8.46,8.46,0,0,1,5.08,2.36l.26.27c2.18,2.29,3.08,4.86,4.87,7.26,1.18,1.58,2.29,3,3.27,4.41a9,9,0,0,1,1.15,2.81,2.13,2.13,0,0,0,.2.5l1.24,2.23,2.43,7.91c.55,6.17,1.1,12.35,1.83,18.51q.22,1.88.52,3.75a23.46,23.46,0,0,0,.86,4.41,40.48,40.48,0,0,0,6.07,14.26c1.93,2.77,7-.06,5-2.83a31,31,0,0,1-3.24-6,2,2,0,0,0-.09-1.47,36.18,36.18,0,0,1-2.22-6.39c-.06-.32-.13-.65-.19-1a12.45,12.45,0,0,1,1.25-8.3,4.83,4.83,0,0,0,4.43-4.11,7.73,7.73,0,0,0,.1-.95A2,2,0,0,0,724.85,365.38Z"/><path class="cls-5" d="M687.28,268.56l0,0a4.16,4.16,0,0,1-1.24-2.24c-1.06-4.92-2.49-9.3-6.84-12.41a43.62,43.62,0,0,1-6.41-6.33,4.33,4.33,0,0,1-.55-.8,5.78,5.78,0,0,0-.58-.85,33,33,0,0,0-4.44-4.61c-1.66-1.35-3.56-2.25-5-3.85a72,72,0,0,1-5-6.21,4.48,4.48,0,0,1-.31-.48c-2.48-4.44-4.33-8.4-5.32-10.6a4.27,4.27,0,0,0-2.86-2.4c-4.57-1.15-15.72-3.41-23.18-.4-9.57,3.86-24.37,21.23-8.7,56.94,8.46,19.29,14.3,32.19,17.89,40,2.27,4.93,8.06,6.26,11.91,2.74l20.17-18.45a4.29,4.29,0,0,1,.58-.45L679,290.62c4-2.56,9.34-5,11.55-9.8S690.71,271.61,687.28,268.56Z"/><path class="cls-8" d="M771.75,595.85c-9-13.21-22.95-20.4-37.44-25.92-10.29-3.92-25.9-5.33-30.76-14.78C699.89,548,702,528.39,700.83,520c-2.26-16.57-5.7-32.93-9.39-49.23-2.56-11.3-7.41-23.86-8-35.4-.55-10.06,6.26-21.15-8.13-25.42-7.79-2.31-16.1,4.12-24.36,4.38-8,.26-25.48-11.57-28.52,4.8-2.46,13.23,9.08,7,13.49,10.06,2.78,1.9,9.26,12.85,10.61,16.44,12.73,33.91,18.93,75.31,24.76,111,2.35,14.4,2.59,21.37,13.37,31.22a356.75,356.75,0,0,0,33.9,27.16c12.77,8.87,19.73,10.08,34.07,2.82C759,614.63,776.85,603.38,771.75,595.85Z"/><path class="cls-15" d="M1397,33.92c47.31-35.23,54.75-101,54.75-101L91.93-103l6.35,58.91-184-7.1V1118.14H373.52l-54.26,95.29L1156.7,1224l-6.76-111.47,254.79,9.83V197l47,5.57S1431.73,55.49,1397,33.92ZM1033.22,460.36h54.13c65.61,0,49.21,90.21,0,90.21H974.17c-29.52,0-23.78,48.39,0,48.39h170.58c36.08,0,26.24,54.13,0,54.13H1033.22c-49.21,0-46.75,62.33,0,62.33h141.06c51.67,0,34.44,68.07,0,68.07H962.69c-18.86,0-24.6,38.55,0,38.55h99.23c59.87,0,42.65,65.61,18.86,65.61H915.94c-34.44,0-32,56.59,0,56.59H1195.6c30.34,0,25.42,44.29,0,44.29H1073.4a47.94,47.94,0,0,0-5.08.27l-76.91.94c-28.87,0-48.78,39.82-93.57,39.82a42.29,42.29,0,0,0-7.41.59L429,1026.79a34.31,34.31,0,0,0-3.94-.23H118c-46.69,0-33.78-68.55,0-68.55H236.25c33.78,0,26.82-56.63,0-56.63h-147c-56.63,0-27.82-68.55,0-68.55H282.94c38.75,0,35.77-62.59,0-62.59H217.37c-79.48,0-59.61-109.28,0-109.28h137.1c35.77,0,28.81-58.62,0-58.62H147.83c-43.71,0-31.79-65.57,0-65.57H282.94c59.61,0,56.63-75.51,0-75.51H112.06c-62.59,0-41.73-82.46,0-82.46H368.38c22.85,0,29.8-46.69,0-46.69H248.17c-72.53,0-51.66-79.48-22.85-79.48H425c41.73,0,38.75-68.55,0-68.55H86.23c-36.76,0-30.8-53.65,0-53.65h148c36,0,51.58-31.16,50.27-62.15,1.11-32.21,26-42.16,45.9-42.16,18.88,0,669.6,3.58,781.11,4,30.18,0,39.5,42.84,0,42.84H974.49c-38.82,0-23.89,59.73,0,59.73H1043c25.28,0,33.61,45.28,13.3,58.73H915.94c-41,0-33.62,57.41,0,57.41h253.41c38.55,0,27.88,56.59,0,56.59h-97.59c-27.88,0-22.14,46.75,0,46.75h121.38c46.75,0,23,56.59,0,56.59H1033.22C1001.23,408.69,1003.69,460.36,1033.22,460.36Z"/></g></g></svg>